<?xml version="1.0" encoding="UTF-8"?>
<!DOCTYPE svg PUBLIC "-//W3C//DTD SVG 1.1//EN" "http://www.w3.org/Graphics/SVG/1.1/DTD/svg11.dtd">
<svg version="1.1" id="Layer_1" xmlns="http://www.w3.org/2000/svg" xmlns:xlink="http://www.w3.org/1999/xlink" x="0px" y="0px"	 width="126px" height="350px" viewBox="0 0 126 350" enable-background="new 0 0 126 350" xml:space="preserve">
  <rect x="5.495" y="23.396" fill="#0000FF" stroke="#0000FF" stroke-miterlimit="10" width="30" height="18"/>
  <rect x="4.995" y="45.277" fill="#007EFD" width="31" height="19"/>
  <rect x="4.995" y="67.659" fill="#009800" width="31" height="19"/>
  <rect x="4.995" y="90.04" fill="#00FF00" width="31" height="19"/>
  <rect x="4.995" y="112.421" fill="#CCFF33" width="31" height="19"/>
  <rect x="4.995" y="134.802" fill="#F8E748" width="31" height="19"/>
  <rect x="4.995" y="157.183" fill="#FF8000" width="31" height="19"/>
  <rect x="4.995" y="179.564" fill="#FF0000" width="31" height="19"/>
  <rect x="4.995" y="201.945" fill="#C00000" width="31" height="19"/>
  <rect x="4.995" y="224.326" fill="#5A0000" width="31" height="19"/>
  <text transform="matrix(1 0 0 1 46.853 36.1304)" fill="#231F20" font-family="Arial" font-size="14">0 - 0,99</text>
  <text transform="matrix(1 0 0 1 46.853 58.5112)" fill="#231F20" font-family="Arial" font-size="14">1 - 1,99</text>
  <text transform="matrix(1 0 0 1 46.853 80.8926)" fill="#231F20" font-family="Arial" font-size="14">2 - 2,99</text>
  <text transform="matrix(1 0 0 1 46.853 103.2734)" fill="#231F20" font-family="Arial" font-size="14">3 - 3,99</text>
  <text transform="matrix(1 0 0 1 46.853 125.6548)" fill="#231F20" font-family="Arial" font-size="14">4 - 4,99</text>
  <text transform="matrix(1 0 0 1 46.853 148.0352)" fill="#231F20" font-family="Arial" font-size="14">5 - 6,99</text>
  <text transform="matrix(1 0 0 1 46.853 170.417)" fill="#231F20" font-family="Arial" font-size="14">7 - 9,99</text>
  <text transform="matrix(1 0 0 1 46.853 192.7988)" fill="#231F20" font-family="Arial" font-size="14">10 - 14,99</text>
  <text transform="matrix(1 0 0 1 46.853 215.1797)" fill="#231F20" font-family="Arial" font-size="14">15 - 19,99</text>
  <text transform="matrix(1 0 0 1 46.853 237.5605)" fill="#231F20" font-family="Arial" font-size="14">20 - MAX</text>
  <text transform="matrix(1 0 0 1 3.8027 15.6313)">
    <tspan x="0" y="0" fill="#231F20" font-family="Arial" font-size="14">microgram/m</tspan>
    <tspan x="81.669" y="-4" fill="#231F20" font-family="Arial" font-size="9">3</tspan>
  </text>
  <circle fill="#D0D2D3" stroke="#231F20" stroke-miterlimit="10" cx="14.495" cy="257" r="4"/>
  <circle fill="#FFFFFF" stroke="#231F20" stroke-miterlimit="10" cx="14.495" cy="326" r="4"/>
  <text transform="matrix(1 0 0 1 25 261.3477)">
    <tspan x="0" y="0" fill="#231F20" font-family="Arial" font-size="12">measuring station: </tspan>
    <tspan x="0" y="14.4" fill="#231F20" font-family="Arial" font-size="12">colour represents </tspan>
    <tspan x="0" y="28.8" fill="#231F20" font-family="Arial" font-size="12">the measured </tspan>
    <tspan x="0" y="43.2" fill="#231F20" font-family="Arial" font-size="12">concentration</tspan>
  </text>
  <text transform="matrix(1 0 0 1 25 329)">
    <tspan x="0" y="0" fill="#231F20" font-family="Arial" font-size="12">currently no data </tspan>
    <tspan x="0" y="14.4" fill="#231F20" font-family="Arial" font-size="12">available</tspan>
  </text>
</svg>
