<?xml version="1.0" encoding="UTF-8"?>
<!DOCTYPE svg PUBLIC "-//W3C//DTD SVG 1.1//EN" "http://www.w3.org/Graphics/SVG/1.1/DTD/svg11.dtd">
<svg version="1.1" id="Layer_1" xmlns="http://www.w3.org/2000/svg" xmlns:xlink="http://www.w3.org/1999/xlink" x="0px" y="0px"	 width="126px" height="350px" viewBox="0 0 126 350" enable-background="new 0 0 126 350" xml:space="preserve">
  <rect x="6" y="22" fill="#0000FF" width="31" height="19"/>
  <rect x="6" y="44.381" fill="#0099FF" width="31" height="19"/>
  <rect x="6" y="66.762" fill="#009900" width="31" height="19"/>
  <rect x="6" y="89.143" fill="#00FF00" width="31" height="19"/>
  <rect x="6" y="111.524" fill="#FFFF00" width="31" height="19"/>
  <rect x="6" y="133.905" fill="#FFBB00" width="31" height="19"/>
  <rect x="6" y="156.286" fill="#FF6600" width="31" height="19"/>
  <rect x="6" y="178.668" fill="#FF0000" width="31" height="19"/>
  <rect x="6" y="201.049" fill="#CC0000" width="31" height="19"/>
  <rect x="6" y="223.43" fill="#990099" width="31" height="19"/>
  <text font-size="14px" y="39.130402" x="46.853001" font-family="Arial" fill="#231f20">0 - 0.25</text>
  <text font-size="14px" y="61.5112" x="46.853001" font-family="Arial" fill="#231f20">0.26 - 0.50</text>
  <text font-size="14px" y="83.892601" x="46.853001" font-family="Arial" fill="#231f20">0.51 - 0.75</text>
  <text font-size="14px" y="106.2734" x="46.853001" font-family="Arial" fill="#231f20">0.76 - 1.00</text>
  <text font-size="14px" y="128.6548" x="46.853001" font-family="Arial" fill="#231f20">1.01 - 1.25</text>
  <text font-size="14px" y="151.0352" x="46.853001" font-family="Arial" fill="#231f20">1.26 - 1.50</text>
  <text font-size="14px" y="173.41701" x="46.853001" font-family="Arial" fill="#231f20">1.51 - 1.75</text>
  <text font-size="14px" y="195.7988" x="46.853001" font-family="Arial" fill="#231f20">1.76 - 2.00</text>
  <text font-size="14px" y="218.1797" x="46.853001" font-family="Arial" fill="#231f20">2.01 - 2.25</text>
  <text font-size="14px" y="240.5605" x="46.853001" font-family="Arial" fill="#231f20">> 2.25</text>
  <text font-size="14" font-family="Arial" transform="translate(3.8027 15.631)" fill="#231F20">microgram/m³</text>
  <circle fill="#D0D2D3" stroke="#231F20" stroke-miterlimit="10" cx="14.495" cy="257" r="4"/>
  <circle fill="#FFFFFF" stroke="#231F20" stroke-miterlimit="10" cx="14.495" cy="320" r="4"/>
  <text font-size="12" font-family="Arial" transform="translate(25 261.35)" fill="#231F20">measuring station:</text>
  <text font-size="12" font-family="Arial" transform="translate(25 275.75)" fill="#231F20">colour represents</text>
  <text font-size="12" font-family="Arial" transform="translate(25 290.15)" fill="#231F20">the measured</text>
  <text font-size="12" font-family="Arial" transform="translate(25 304.55)" fill="#231F20">concentration</text>
  <text font-size="12" font-family="Arial" transform="translate(25 329)" fill="#231F20">less than 90%</text>
  <text font-size="12" font-family="Arial" transform="translate(25 343.4)" fill="#231F20">data capture</text>
</svg>
