<?xml version="1.0" encoding="UTF-8"?>
<!DOCTYPE svg PUBLIC "-//W3C//DTD SVG 1.1//EN" "http://www.w3.org/Graphics/SVG/1.1/DTD/svg11.dtd">
<svg version="1.1" id="Layer_1" xmlns="http://www.w3.org/2000/svg" xmlns:xlink="http://www.w3.org/1999/xlink" x="0px" y="0px"	 width="126px" height="350px" viewBox="0 0 126 350" enable-background="new 0 0 126 350" xml:space="preserve">
  <rect x="6" y="22.896" fill="#0000FF" width="31" height="19"/>
  <rect x="6" y="45.277" fill="#007EFD" width="31" height="19"/>
  <rect x="6" y="67.659" fill="#009800" width="31" height="19"/>
  <rect x="6" y="90.04" fill="#00FF00" width="31" height="19"/>
  <rect x="6" y="112.421" fill="#CCFF33" width="31" height="19"/>
  <rect x="6" y="134.802" fill="#F8E748" width="31" height="19"/>
  <rect x="6" y="157.183" fill="#FF8000" width="31" height="19"/>
  <rect x="6" y="179.564" fill="#FF0000" width="31" height="19"/>
  <rect x="6" y="201.945" fill="#C00000" width="31" height="19"/>
  <rect x="6" y="224.326" fill="#5A0000" width="31" height="19"/>
  <text font-size="14px" y="39.130402" x="46.853001" font-family="Arial" fill="#231f20">0 - 0,50</text>
  <text font-size="14px" y="61.5112" x="46.853001" font-family="Arial" fill="#231f20">0,51 - 1,00</text>
  <text font-size="14px" y="83.892601" x="46.853001" font-family="Arial" fill="#231f20">1,01 - 1,25</text>
  <text font-size="14px" y="106.2734" x="46.853001" font-family="Arial" fill="#231f20">1,26 - 1,50</text>
  <text font-size="14px" y="128.6548" x="46.853001" font-family="Arial" fill="#231f20">1,51 - 1,75</text>
  <text font-size="14px" y="151.0352" x="46.853001" font-family="Arial" fill="#231f20">1,76 - 2,00</text>
  <text font-size="14px" y="173.41701" x="46.853001" font-family="Arial" fill="#231f20">2,01 - 2,50</text>
  <text font-size="14px" y="195.7988" x="46.853001" font-family="Arial" fill="#231f20">2,51 - 3,00</text>
  <text font-size="14px" y="218.1797" x="46.853001" font-family="Arial" fill="#231f20">3,01 - 3,50</text>
  <text font-size="14px" y="240.5605" x="46.853001" font-family="Arial" fill="#231f20">> 3,50</text>
  <text font-size="14" font-family="Arial" transform="translate(3.8027 15.631)" fill="#231F20">microgram/m³</text>
  <circle fill="#D0D2D3" stroke="#231F20" stroke-miterlimit="10" cx="14.495" cy="257" r="4"/>
  <circle fill="#FFFFFF" stroke="#231F20" stroke-miterlimit="10" cx="14.495" cy="320" r="4"/>
  <text font-size="12" font-family="Arial" transform="translate(25 261.35)" fill="#231F20">meetstation: kleur</text>
  <text font-size="12" font-family="Arial" transform="translate(25 275.75)" fill="#231F20">geeft de gemeten</text>
  <text font-size="12" font-family="Arial" transform="translate(25 290.15)" fill="#231F20">jaargemiddelde</text>
  <text font-size="12" font-family="Arial" transform="translate(25 304.55)" fill="#231F20">concentratie weer</text>
  <text font-size="12" font-family="Arial" transform="translate(25 325)" fill="#231F20">&lt; 85% gegevens-</text>
  <text font-size="12" font-family="Arial" transform="translate(25 339.4)" fill="#231F20">vastlegging</text>
</svg>
