<?xml version="1.0" encoding="UTF-8"?>
<!DOCTYPE svg PUBLIC "-//W3C//DTD SVG 1.1//EN" "http://www.w3.org/Graphics/SVG/1.1/DTD/svg11.dtd">
<svg version="1.1" id="Layer_1" xmlns="http://www.w3.org/2000/svg" xmlns:xlink="http://www.w3.org/1999/xlink" x="0px" y="0px"	 width="126px" height="350px" viewBox="0 0 126 350" enable-background="new 0 0 126 350" xml:space="preserve">
  <g>
    <rect x="4.995" y="22.896" fill="#0000FF" width="31" height="19"/>
  </g>
  <rect height="19" width="31" y="48.277" x="4.995" fill="#007efd"/>
  <rect height="19" width="31" y="70.659" x="4.995" fill="#009800"/>
  <rect height="19" width="31" y="93.04" x="4.995" fill="#00ff00"/>
  <rect height="19" width="31" y="115.42" x="4.995" fill="#ccff33"/>
  <rect height="19" width="31" y="137.8" x="4.995" fill="#f8e748"/>
  <rect height="19" width="31" y="160.18" x="4.995" fill="#ff8000"/>
  <rect height="19" width="31" y="182.56" x="4.995" fill="#ff0000"/>
  <rect height="19" width="31" y="204.95" x="4.995" fill="#c00000"/>
  <rect height="19" width="31" y="227.33" x="4.995" fill="#5a0000"/>
  <text font-size="14px" y="39.130402" x="46.853001" font-family="Arial" fill="#231f20">0 - 0,50</text>
  <text font-size="14px" y="61.5112" x="46.853001" font-family="Arial" fill="#231f20">0,51 - 1,00</text>
  <text font-size="14px" y="83.892601" x="46.853001" font-family="Arial" fill="#231f20">1,01 - 1,25</text>
  <text font-size="14px" y="106.2734" x="46.853001" font-family="Arial" fill="#231f20">1,26 - 1,50</text>
  <text font-size="14px" y="128.6548" x="46.853001" font-family="Arial" fill="#231f20">1,51 - 1,75</text>
  <text font-size="14px" y="151.0352" x="46.853001" font-family="Arial" fill="#231f20">1,76 - 2,00</text>
  <text font-size="14px" y="173.41701" x="46.853001" font-family="Arial" fill="#231f20">2,01 - 2,50</text>
  <text font-size="14px" y="195.7988" x="46.853001" font-family="Arial" fill="#231f20">2,51 - 3,00</text>
  <text font-size="14px" y="218.1797" x="46.853001" font-family="Arial" fill="#231f20">3,01 - 3,50</text>
  <text font-size="14px" y="240.5605" x="46.853001" font-family="Arial" fill="#231f20">3,51 - MAX</text>
  <text transform="matrix(1 0 0 1 3.8027 15.6313)">
    <tspan x="0" y="0" fill="#231F20" font-family="Arial" font-size="14">microgram/m</tspan>
    <tspan x="81.669" y="-4" fill="#231F20" font-family="Arial" font-size="9">3</tspan>
  </text>
  <circle cx="14.495" stroke="#231f20" cy="260" r="4" stroke-miterlimit="10" fill="#d0d2d3"/>
  <circle cx="14.495" stroke="#231f20" cy="325" r="4" stroke-miterlimit="10" fill="#ffffff"/>
  <text font-size="12px" y="264.34769" x="25" font-family="Arial" fill="#231f20">
    <tspan y="264.34769" x="25">meetstation: kleur</tspan>
    <tspan y="278.74771" x="25">geeft de gemeten </tspan>
    <tspan y="293.14771" x="25">jaargemiddelde</tspan>
    <tspan y="307.5477" x="25">concentratie weer</tspan>
  </text>
  <text font-size="12px" y="328" x="25" font-family="Arial" fill="#231f20">
    <tspan y="328" x="25">&lt; 85% gegevens-</tspan>
    <tspan y="342.39999" x="25">vastlegging</tspan>
  </text>
</svg>
