<?xml version="1.0" encoding="UTF-8"?>
<!DOCTYPE svg PUBLIC "-//W3C//DTD SVG 1.1//EN" "http://www.w3.org/Graphics/SVG/1.1/DTD/svg11.dtd">
<svg version="1.1" id="Layer_1" xmlns="http://www.w3.org/2000/svg" xmlns:xlink="http://www.w3.org/1999/xlink" x="0px" y="0px"	 width="460px" height="132px" viewBox="0 0 460 132" enable-background="new 0 0 460 132" xml:space="preserve">
  <rect x="36.5" y="34" fill="#0000FF" stroke="#A6A8AB" stroke-miterlimit="10" width="32" height="20"/>
  <rect x="68.5" y="34" fill="#0099FF" stroke="#A6A8AB" stroke-miterlimit="10" width="32" height="20"/>
  <rect x="100.5" y="34" fill="#009900" stroke="#A6A8AB" stroke-miterlimit="10" width="32" height="20"/>
  <rect x="132.5" y="34" fill="#00FF00" stroke="#A6A8AB" stroke-miterlimit="10" width="32" height="20"/>
  <rect x="164.5" y="34" fill="#FFFF00" stroke="#A6A8AB" stroke-miterlimit="10" width="32" height="20"/>
  <rect x="196.5" y="34" fill="#FFBB00" stroke="#A6A8AB" stroke-miterlimit="10" width="32" height="20"/>
  <rect x="228.5" y="34" fill="#FF6600" stroke="#A6A8AB" stroke-miterlimit="10" width="32" height="20"/>
  <rect x="260.5" y="34" fill="#FF0000" stroke="#A6A8AB" stroke-miterlimit="10" width="32" height="20"/>
  <rect x="292.5" y="34" fill="#990000" stroke="#A6A8AB" stroke-miterlimit="10" width="32" height="20"/>
  <rect x="324.5" y="34" fill="#660000" stroke="#A6A8AB" stroke-miterlimit="10" width="32" height="20"/>
  <text transform="matrix(1 0 0 1 7.5 20)" fill="#231F20" font-family="Arial" font-size="13">Jaargemiddelde zwarte koolstof berekend met ATMO-Street (μg/m³)</text>
  <text transform="matrix(0.7071 -0.7071 0.7071 0.7071 24.9805 105.0898)" fill="#231F20" font-family="Arial" font-size="14">0 - 0.50</text>
  <text transform="matrix(0.7071 -0.7071 0.7071 0.7071 45.416 115.0898)" fill="#231F20" font-family="Arial" font-size="14">0.51 - 1.00</text>
  <text transform="matrix(0.7071 -0.7071 0.7071 0.7071 80.0996 115.5957)" fill="#231F20" font-family="Arial" font-size="14">1.01 - 1.25</text>
  <text transform="matrix(0.7071 -0.7071 0.7071 0.7071 111.1504 115.3672)" fill="#231F20" font-family="Arial" font-size="14">1.26 - 1.50</text>
  <text transform="matrix(0.7071 -0.7071 0.7071 0.7071 141.2188 115.1016)" fill="#231F20" font-family="Arial" font-size="14">1.51 - 1.75</text>
  <text transform="matrix(0.7071 -0.7071 0.7071 0.7071 173.6543 115.1016)" fill="#231F20" font-family="Arial" font-size="14">1.76 - 2.00</text>
  <text transform="matrix(0.7071 -0.7071 0.7071 0.7071 204.0908 115.1016)" fill="#231F20" font-family="Arial" font-size="14">2.01 - 2.50</text>
  <text transform="matrix(0.7071 -0.7071 0.7071 0.7071 237.5264 115.1016)" fill="#231F20" font-family="Arial" font-size="14">2.51 - 3.00</text>
  <text transform="matrix(0.7071 -0.7071 0.7071 0.7071 269.9629 115.1016)" fill="#231F20" font-family="Arial" font-size="14">3.01 - 3.50</text>
  <text transform="matrix(0.7071 -0.7071 0.7071 0.7071 316.3994 100.1016)" fill="#231F20" font-family="Arial" font-size="14">> 3.50</text>
</svg>
