<?xml version="1.0" encoding="UTF-8"?>
<!DOCTYPE svg PUBLIC "-//W3C//DTD SVG 1.1//EN" "http://www.w3.org/Graphics/SVG/1.1/DTD/svg11.dtd">
<svg version="1.1" id="Layer_1" xmlns="http://www.w3.org/2000/svg" xmlns:xlink="http://www.w3.org/1999/xlink" x="0px" y="0px"	 width="130px" height="344px" viewBox="0 0 130 344" enable-background="new 0 0 130 344" xml:space="preserve">
  <rect x="6" y="22" fill="#2b83ba" width="31" height="19"/>
  <rect x="6" y="44.381" fill="#55a1b2" width="31" height="19"/>
  <rect x="6" y="66.762" fill="#80bfab" width="31" height="19"/>
  <rect x="6" y="89.143" fill="#abdda4" width="31" height="19"/>
  <rect x="6" y="111.524" fill="#c7e8ad" width="31" height="19"/>
  <rect x="6" y="133.905" fill="#e3f3b6" width="31" height="19"/>
  <rect x="6" y="156.286" fill="#ffffbf" width="31" height="19"/>
  <rect x="6" y="178.668" fill="#fee49f" width="31" height="19"/>
  <rect x="6" y="201.049" fill="#fdc980" width="31" height="19"/>
  <rect x="6" y="223.43" fill="#fdae61" width="31" height="19"/>
  <rect x="6" y="245.811" fill="#f07c4a" width="31" height="19"/>
  <rect x="6" y="268.192" fill="#e34a33" width="31" height="19"/>
  <rect x="6" y="290.573" fill="#d7191c" width="31" height="19"/>
  <text transform="matrix(1 0 0 1 46.853 36.1304)" fill="#231F20" font-family="Arial" font-size="14"> 0.351 - 0.360 </text>
  <text transform="matrix(1 0 0 1 46.853 58.5112)" fill="#231F20" font-family="Arial" font-size="14"> 0.361 - 0.370 </text>
  <text transform="matrix(1 0 0 1 46.853 80.8926)" fill="#231F20" font-family="Arial" font-size="14"> 0.371 - 0.380 </text>
  <text transform="matrix(1 0 0 1 46.853 103.2734)" fill="#231F20" font-family="Arial" font-size="14"> 0.381 - 0.390 </text>
  <text transform="matrix(1 0 0 1 46.853 125.6548)" fill="#231F20" font-family="Arial" font-size="14"> 0.391 - 0.400 </text>
  <text transform="matrix(1 0 0 1 46.853 148.0352)" fill="#231F20" font-family="Arial" font-size="14"> 0.401 - 0.410 </text>
  <text transform="matrix(1 0 0 1 46.853 170.417)" fill="#231F20" font-family="Arial" font-size="14"> 0.411 - 0.420 </text>
  <text transform="matrix(1 0 0 1 46.853 192.7988)" fill="#231F20" font-family="Arial" font-size="14"> 0.421 - 0.430 </text>
  <text transform="matrix(1 0 0 1 46.853 215.1797)" fill="#231F20" font-family="Arial" font-size="14"> 0.431 - 0.440 </text>
  <text transform="matrix(1 0 0 1 46.853 237.5605)" fill="#231F20" font-family="Arial" font-size="14"> 0.441 - 0.450</text>
<text transform="matrix(1 0 0 1 46.853 259.9413)" fill="#231F20" font-family="Arial" font-size="14"> 0.451 - 0.460 </text>
<text transform="matrix(1 0 0 1 46.853 282.3221)" fill="#231F20" font-family="Arial" font-size="14"> 0.461 - 0.470 </text>
<text transform="matrix(1 0 0 1 46.853 304.7029)" fill="#231F20" font-family="Arial" font-size="14"> 0.471 - 0.480 </text>
  <text font-size="14" font-family="Arial" transform="translate(3.8027 15.631)" fill="#231F20">µg/m³</text>
</svg>
