<?xml version="1.0" encoding="UTF-8"?>
<!DOCTYPE svg PUBLIC "-//W3C//DTD SVG 1.1//EN" "http://www.w3.org/Graphics/SVG/1.1/DTD/svg11.dtd">
<svg version="1.1" id="Layer_1" xmlns="http://www.w3.org/2000/svg" xmlns:xlink="http://www.w3.org/1999/xlink" x="0px" y="0px"	 width="1000px" height="50px" viewBox="0 0 1000 50" enable-background="new 0 0 1000 50" xml:space="preserve">
  <rect x="10" y="5" fill="#0000FF" width="100" height="20"/>
  <rect x="110" y="5" fill="#0099FF" width="100" height="20"/>
  <rect x="210" y="5" fill="#009900" width="100" height="20"/>
  <rect x="310" y="5" fill="#00FF00" width="100" height="20"/>
  <rect x="410" y="5" fill="#FFFF00" width="100" height="20"/>
  <rect x="510" y="5" fill="#FFBB00" width="100" height="20"/>
  <rect x="610" y="5" fill="#FF6600" width="100" height="20"/>
  <rect x="710" y="5" fill="#FF0000" width="100" height="20"/>
  <rect x="810" y="5" fill="#CC0000" width="100" height="20"/>
  <rect x="910" y="5" fill="#990099" width="100" height="20"/>
  <text transform="matrix(1 0 0 1 25 20)" fill="white" font-family="Arial" font-size="12">ausgezeichnet</text>
  <text transform="matrix(1 0 0 1 135 20)" fill="white" font-family="Arial" font-size="12">sehr gut</text>
  <text transform="matrix(1 0 0 1 252 20)" fill="white" font-family="Arial" font-size="12">gut</text>
  <text transform="matrix(1 0 0 1 335 20)" fill="black" font-family="Arial" font-size="12">ziemlich gut</text>
  <text transform="matrix(1 0 0 1 430 20)" fill="black" font-family="Arial" font-size="12">middelmäßig</text>
  <text transform="matrix(1 0 0 1 530 20)" fill="black" font-family="Arial" font-size="12">mangelhaft</text>
  <text transform="matrix(1 0 0 1 620 20)" fill="black" font-family="Arial" font-size="12">sehr mangelhaft</text>
  <text transform="matrix(1 0 0 1 742 20)" fill="black" font-family="Arial" font-size="12">schlecht</text>
  <text transform="matrix(1 0 0 1 828 20)" fill="white" font-family="Arial" font-size="12">sehr schlecht</text>
  <text transform="matrix(1 0 0 1 912 20)" fill="white" font-family="Arial" font-size="12">extrem schlecht</text>
</svg>