<?xml version="1.0" encoding="UTF-8"?>
<!DOCTYPE svg PUBLIC "-//W3C//DTD SVG 1.1//EN" "http://www.w3.org/Graphics/SVG/1.1/DTD/svg11.dtd">
<svg version="1.1" id="Layer_1" xmlns="http://www.w3.org/2000/svg" xmlns:xlink="http://www.w3.org/1999/xlink" x="0px" y="0px"	 width="1000px" height="50px" viewBox="0 0 1000 50" enable-background="new 0 0 1000 50" xml:space="preserve">
  <rect x="10" y="20" fill="#0000FF" width="100" height="20"/>
  <rect x="110" y="20" fill="#0099FF" width="100" height="20"/>
  <rect x="210" y="20" fill="#009900" width="100" height="20"/>
  <rect x="310" y="20" fill="#00FF00" width="100" height="21"/>
  <rect x="410" y="20" fill="#FFFF00" width="100" height="20"/>
  <rect x="510" y="20" fill="#FFBB00" width="100" height="20"/>
  <rect x="610" y="20" fill="#FF6600" width="100" height="20"/>
  <rect x="710" y="20" fill="#FF0000" width="100" height="20"/>
  <rect x="810" y="20" fill="#CC0000" width="100" height="20"/>
  <rect x="910" y="20" fill="#990099" width="100" height="20"/>
  <text transform="matrix(1 0 0 1 32 35)" fill="white" font-family="Arial" font-size="12">excellent</text>
  <text transform="matrix(1 0 0 1 135 35)" fill="white" font-family="Arial" font-size="12">très bon</text>
  <text transform="matrix(1 0 0 1 252 35)" fill="white" font-family="Arial" font-size="12">bon</text>
  <text transform="matrix(1 0 0 1 335 35)" fill="black" font-family="Arial" font-size="12">assez bon</text>
  <text transform="matrix(1 0 0 1 435 35)" fill="black" font-family="Arial" font-size="12">moyen</text>
  <text transform="matrix(1 0 0 1 535 35)" fill="black" font-family="Arial" font-size="12">médiocre</text>
  <text transform="matrix(1 0 0 1 630 35)" fill="black" font-family="Arial" font-size="12">très médiocre</text>
  <text transform="matrix(1 0 0 1 740 35)" fill="black" font-family="Arial" font-size="12">mauvais</text>
  <text transform="matrix(1 0 0 1 830 35)" fill="white" font-family="Arial" font-size="12">très mauvais</text>
  <text transform="matrix(1 0 0 1 915 35)" fill="white" font-family="Arial" font-size="12">exécrable</text>
</svg>