<?xml version="1.0" encoding="UTF-8"?>
<!DOCTYPE svg PUBLIC "-//W3C//DTD SVG 1.1//EN" "http://www.w3.org/Graphics/SVG/1.1/DTD/svg11.dtd">
<svg version="1.1" id="Layer_1" xmlns="http://www.w3.org/2000/svg" xmlns:xlink="http://www.w3.org/1999/xlink" x="0px" y="0px"	 width="366.5px" height="132px" viewBox="0 0 366.5 132" enable-background="new 0 0 366.5 132" xml:space="preserve">
  <rect x="36.5" y="65" fill="#0000FF" stroke="#A6A8AB" stroke-miterlimit="10" width="32" height="20"/>
  <rect x="68.5" y="65" fill="#0099FF" stroke="#A6A8AB" stroke-miterlimit="10" width="32" height="20"/>
  <rect x="100.5" y="65" fill="#009900" stroke="#A6A8AB" stroke-miterlimit="10" width="32" height="20"/>
  <rect x="132.5" y="65" fill="#00FF00" stroke="#A6A8AB" stroke-miterlimit="10" width="32" height="20"/>
  <rect x="164.5" y="65" fill="#FFFF00" stroke="#A6A8AB" stroke-miterlimit="10" width="32" height="20"/>
  <rect x="196.5" y="65" fill="#FFBB00" stroke="#A6A8AB" stroke-miterlimit="10" width="32" height="20"/>
  <rect x="228.5" y="65" fill="#FF6600" stroke="#A6A8AB" stroke-miterlimit="10" width="32" height="20"/>
  <rect x="260.5" y="65" fill="#FF0000" stroke="#A6A8AB" stroke-miterlimit="10" width="32" height="20"/>
  <rect x="292.5" y="65" fill="#990000" stroke="#A6A8AB" stroke-miterlimit="10" width="32" height="20"/>
  <rect x="324.5" y="65" fill="#660000" stroke="#A6A8AB" stroke-miterlimit="10" width="32" height="20"/>
  <text transform="matrix(1 0 0 1 7.5 16.1665)" fill="#231F20" font-family="Arial" font-size="14">NO<tspan baseline-shift="sub" font-size="8px">2</tspan>-jaargemiddelde berekend met ATMO-Street (μg/m³)</text>
  <text transform="matrix(1 0 0 1 195.7148 43.6665)" fill="#231F20" font-family="Arial" font-size="14">EU-grenswaarde</text>
  <line fill="none" stroke="#231F20" stroke-miterlimit="10" x1="260.5" y1="55.5" x2="260.5" y2="85"/>
  <text transform="matrix(0.7071 -0.7071 0.7071 0.7071 34.9805 125.6699)" fill="#231F20" font-family="Arial" font-size="14">0 - 10</text>
  <text transform="matrix(0.7071 -0.7071 0.7071 0.7071 61.1973 131.1758)" fill="#231F20" font-family="Arial" font-size="14">11 - 15</text>
  <text transform="matrix(0.7071 -0.7071 0.7071 0.7071 92.1855 131.9102)" fill="#231F20" font-family="Arial" font-size="14">16 - 20</text>
  <text transform="matrix(0.7071 -0.7071 0.7071 0.7071 123.9082 131.9102)" fill="#231F20" font-family="Arial" font-size="14">21 - 25</text>
  <text transform="matrix(0.7071 -0.7071 0.7071 0.7071 155.6309 131.9102)" fill="#231F20" font-family="Arial" font-size="14">26 - 30</text>
  <text transform="matrix(0.7071 -0.7071 0.7071 0.7071 187.3535 131.9102)" fill="#231F20" font-family="Arial" font-size="14">31 - 35</text>
  <text transform="matrix(0.7071 -0.7071 0.7071 0.7071 219.0762 131.9102)" fill="#231F20" font-family="Arial" font-size="14">36 - 40</text>
  <text transform="matrix(0.7071 -0.7071 0.7071 0.7071 250.7988 131.9102)" fill="#231F20" font-family="Arial" font-size="14">41 - 45</text>
  <text transform="matrix(0.7071 -0.7071 0.7071 0.7071 282.5215 131.9102)" fill="#231F20" font-family="Arial" font-size="14">46 - 50</text>
  <text transform="matrix(0.7071 -0.7071 0.7071 0.7071 319.5527 129.9102)" fill="#231F20" font-family="Arial" font-size="14">> 50</text>
  </svg>
