<?xml version="1.0" encoding="UTF-8"?>
<!DOCTYPE svg PUBLIC "-//W3C//DTD SVG 1.1//EN" "http://www.w3.org/Graphics/SVG/1.1/DTD/svg11.dtd">
<svg version="1.1" id="Layer_1" xmlns="http://www.w3.org/2000/svg" xmlns:xlink="http://www.w3.org/1999/xlink" x="0px" y="0px"	 width="160px" height="350px" viewBox="0 0 130 350" enable-background="new 0 0 130 350" xml:space="preserve">
  <rect x="6" y="22" fill="#b30000" width="31" height="19"/>
  <rect x="6" y="44.381" fill="#d93b28" width="31" height="19"/>
  <rect x="6" y="66.762" fill="#f27249" width="31" height="19"/>
  <rect x="6" y="89.143" fill="#fca66c" width="31" height="19"/>
  <rect x="6" y="111.524" fill="#fdd399" width="31" height="19"/>
  <rect x="6" y="133.905" fill="#fef0d9" width="31" height="19"/>
  <text transform="matrix(1 0 0 1 46.853 36.1304)" fill="#231F20" font-family="Arial" font-size="14">-0.70 - -0.61</text>
  <text transform="matrix(1 0 0 1 46.853 58.5112)" fill="#231F20" font-family="Arial" font-size="14">-0.60 - -0.51</text>
  <text transform="matrix(1 0 0 1 46.853 80.8926)" fill="#231F20" font-family="Arial" font-size="14">-0.50 - -0.41</text>
  <text transform="matrix(1 0 0 1 46.853 103.2734)" fill="#231F20" font-family="Arial" font-size="14">-0.40 - -0.31</text>
  <text transform="matrix(1 0 0 1 46.853 125.6548)" fill="#231F20" font-family="Arial" font-size="14">-0.30 - -0.21</text>
  <text transform="matrix(1 0 0 1 46.853 148.0352)" fill="#231F20" font-family="Arial" font-size="14">-0.20 - -0.1 </text>
  <text font-size="14" font-family="Arial" transform="translate(3.8027 15.631)" fill="#231F20">µg/m³/y</text>
</svg>
