<?xml version="1.0" encoding="UTF-8"?>
<!DOCTYPE svg PUBLIC "-//W3C//DTD SVG 1.1//EN" "http://www.w3.org/Graphics/SVG/1.1/DTD/svg11.dtd">
<svg version="1.1" id="Layer_1" xmlns="http://www.w3.org/2000/svg" xmlns:xlink="http://www.w3.org/1999/xlink" x="0px" y="0px"	 width="130px" height="350px" viewBox="0 0 130 350" enable-background="new 0 0 130 350" xml:space="preserve">
  <text transform="matrix(1 0 0 1 41.8491 35.1304)" fill="#231F20" font-family="Arial" font-size="14">0 - 10</text>
  <text transform="matrix(1 0 0 1 41.8491 57.5112)" fill="#231F20" font-family="Arial" font-size="14">11 - 15</text>
  <text transform="matrix(1 0 0 1 41.8491 79.8926)" fill="#231F20" font-family="Arial" font-size="14">16 - 20</text>
  <text transform="matrix(1 0 0 1 41.8491 102.2734)" fill="#231F20" font-family="Arial" font-size="14">21 - 25</text>
  <text transform="matrix(1 0 0 1 41.8491 124.6548)" fill="#231F20" font-family="Arial" font-size="14">26 - 30</text>
  <text transform="matrix(1 0 0 1 41.8491 147.0352)" fill="#231F20" font-family="Arial" font-size="14">31 - 35</text>
  <text transform="matrix(1 0 0 1 41.8491 169.417)" fill="#231F20" font-family="Arial" font-size="14">36 - 40</text>
  <text transform="matrix(1 0 0 1 41.8491 191.7988)" fill="#231F20" font-family="Arial" font-size="14">41 - 45</text>
  <text transform="matrix(1 0 0 1 41.8491 214.1797)" fill="#231F20" font-family="Arial" font-size="14">46 - 50</text>
  <text transform="matrix(1 0 0 1 41.8491 236.5605)" fill="#231F20" font-family="Arial" font-size="14">51 - MAX</text>
  <text transform="matrix(1 0 0 1 6.0005 14.6313)">
    <tspan x="0" y="0" fill="#231F20" font-family="Arial" font-size="14">microgram/m</tspan>
    <tspan x="81.669" y="-4" fill="#231F20" font-family="Arial" font-size="9">3</tspan>
  </text>
  <g>
    <rect x="6" y="22" fill="#0000FF" width="31" height="19"/>
    <rect x="6" y="44.381" fill="#007EFD" width="31" height="19"/>
    <rect x="6" y="66.762" fill="#009800" width="31" height="19"/>
    <rect x="6" y="89.143" fill="#00FF00" width="31" height="19"/>
    <rect x="6" y="111.524" fill="#CCFF33" width="31" height="19"/>
    <rect x="6" y="133.905" fill="#F8E748" width="31" height="19"/>
    <rect x="6" y="156.286" fill="#FF8000" width="31" height="19"/>
    <rect x="6" y="178.668" fill="#FF0000" width="31" height="19"/>
    <rect x="6" y="201.049" fill="#C00000" width="31" height="19"/>
    <rect x="6" y="223.43" fill="#5A0000" width="31" height="19"/>
  </g>
  <circle fill="#D0D2D3" stroke="#231F20" stroke-miterlimit="10" cx="12.496" cy="257" r="4"/>
  <circle fill="#FFFFFF" stroke="#231F20" stroke-miterlimit="10" cx="12.496" cy="326" r="4"/>
  <text transform="matrix(1 0 0 1 23.0005 261.3477)">
    <tspan x="0" y="0" fill="#231F20" font-family="Arial" font-size="12">measuring station: </tspan>
    <tspan x="0" y="14.4" fill="#231F20" font-family="Arial" font-size="12">colour represents </tspan>
    <tspan x="0" y="28.8" fill="#231F20" font-family="Arial" font-size="12">the measured </tspan>
    <tspan x="0" y="43.2" fill="#231F20" font-family="Arial" font-size="12">concentration</tspan>
  </text>
  <text transform="matrix(1 0 0 1 23.0005 329)">
    <tspan x="0" y="0" fill="#231F20" font-family="Arial" font-size="12">currently no data </tspan>
    <tspan x="0" y="14.4" fill="#231F20" font-family="Arial" font-size="12">available</tspan>
  </text>
</svg>
