<?xml version="1.0" encoding="UTF-8"?>
<!DOCTYPE svg PUBLIC "-//W3C//DTD SVG 1.1//EN" "http://www.w3.org/Graphics/SVG/1.1/DTD/svg11.dtd">
<svg version="1.1" id="Layer_1" xmlns="http://www.w3.org/2000/svg" xmlns:xlink="http://www.w3.org/1999/xlink" x="0px" y="0px"	 width="130px" height="344px" viewBox="0 0 130 344" enable-background="new 0 0 130 344" xml:space="preserve">
  <text transform="matrix(1 0 0 1 46.853 36.1304)" fill="#231F20" font-family="Arial" font-size="14">0 - 10</text>
  <text transform="matrix(1 0 0 1 46.853 58.5112)" fill="#231F20" font-family="Arial" font-size="14">11 - 15</text>
  <text transform="matrix(1 0 0 1 46.853 80.8926)" fill="#231F20" font-family="Arial" font-size="14">16 - 20</text>
  <text transform="matrix(1 0 0 1 46.853 103.2734)" fill="#231F20" font-family="Arial" font-size="14">21 - 25</text>
  <text transform="matrix(1 0 0 1 46.853 125.6548)" fill="#231F20" font-family="Arial" font-size="14">26 - 30</text>
  <text transform="matrix(1 0 0 1 46.853 148.0352)" fill="#231F20" font-family="Arial" font-size="14">31 - 35</text>
  <text transform="matrix(1 0 0 1 46.853 170.417)" fill="#231F20" font-family="Arial" font-size="14">36 - 40</text>
  <text transform="matrix(1 0 0 1 46.853 192.7988)" fill="#231F20" font-family="Arial" font-size="14">41 - 45</text>
  <text transform="matrix(1 0 0 1 46.853 215.1797)" fill="#231F20" font-family="Arial" font-size="14">46 - 50</text>
  <text transform="matrix(1 0 0 1 46.853 237.5605)" fill="#231F20" font-family="Arial" font-size="14">51 - MAX</text>
  <text transform="matrix(1 0 0 1 6 15.6313)">
    <tspan x="0" y="0" fill="#231F20" font-family="Arial" font-size="14">microgram/m</tspan>
    <tspan x="81.669" y="-4" fill="#231F20" font-family="Arial" font-size="9">3</tspan>
  </text>
  <circle fill="#D0D2D3" stroke="#231F20" stroke-miterlimit="10" cx="12.495" cy="255" r="4"/>
  <circle fill="#FFFFFF" stroke="#231F20" stroke-miterlimit="10" cx="12.495" cy="318" r="4"/>
  <text transform="matrix(0.9964 0 0 1 23 259.3477)">
    <tspan x="0" y="0" fill="#231F20" font-family="Arial" font-size="12">meetstation: kleur</tspan>
    <tspan x="0" y="14.4" fill="#231F20" font-family="Arial" font-size="12">geeft gemeten </tspan>
    <tspan x="0" y="28.8" fill="#231F20" font-family="Arial" font-size="12">jaargemiddelde </tspan>
    <tspan x="0" y="43.2" fill="#231F20" font-family="Arial" font-size="12">concentratie weer</tspan>
  </text>
  <text transform="matrix(1 0 0 1 23 321)">
    <tspan x="0" y="0" fill="#231F20" font-family="Arial" font-size="12">&lt; 85% gegevens-</tspan>
    <tspan x="0" y="14.4" fill="#231F20" font-family="Arial" font-size="12">vastlegging</tspan>
  </text>
  <g>
    <rect x="6" y="22" fill="#0000FF" width="31" height="19"/>
    <rect x="6" y="44.381" fill="#007EFD" width="31" height="19"/>
    <rect x="6" y="66.762" fill="#009800" width="31" height="19"/>
    <rect x="6" y="89.143" fill="#00FF00" width="31" height="19"/>
    <rect x="6" y="111.524" fill="#CCFF33" width="31" height="19"/>
    <rect x="6" y="133.905" fill="#F8E748" width="31" height="19"/>
    <rect x="6" y="156.286" fill="#FF8000" width="31" height="19"/>
    <rect x="6" y="178.668" fill="#FF0000" width="31" height="19"/>
    <rect x="6" y="201.049" fill="#C00000" width="31" height="19"/>
    <rect x="6" y="223.43" fill="#5A0000" width="31" height="19"/>
  </g>
</svg>
