<?xml version="1.0" encoding="UTF-8"?>
<!DOCTYPE svg PUBLIC "-//W3C//DTD SVG 1.1//EN" "http://www.w3.org/Graphics/SVG/1.1/DTD/svg11.dtd">
<svg version="1.1" id="Layer_1" xmlns="http://www.w3.org/2000/svg" xmlns:xlink="http://www.w3.org/1999/xlink" x="0px" y="0px"	 width="366.5px" height="155.5px" viewBox="0 0 366.5 155.5" enable-background="new 0 0 366.5 155.5" xml:space="preserve">
  <rect x="36.5" y="54" fill="#1166CC" stroke="#A6A8AB" stroke-miterlimit="10" width="32" height="20"/>
  <rect x="68.5" y="54" fill="#119999" stroke="#A6A8AB" stroke-miterlimit="10" width="32" height="20"/>
  <rect x="100.5" y="54" fill="#99DD77" stroke="#A6A8AB" stroke-miterlimit="10" width="32" height="20"/>
  <rect x="132.5" y="54" fill="#EEEE33" stroke="#A6A8AB" stroke-miterlimit="10" width="32" height="20"/>
  <rect x="164.5" y="54" fill="#FBD30B" stroke="#A6A8AB" stroke-miterlimit="10" width="32" height="20"/>
  <rect x="196.5" y="54" fill="#FF4411" stroke="#A6A8AB" stroke-miterlimit="10" width="32" height="20"/>
  <rect x="228.5" y="54" fill="#DD0000" stroke="#A6A8AB" stroke-miterlimit="10" width="32" height="20"/>
  <rect x="260.5" y="54" fill="#880000" stroke="#A6A8AB" stroke-miterlimit="10" width="32" height="20"/>
  <rect x="292.5" y="54" fill="#770077" stroke="#A6A8AB" stroke-miterlimit="10" width="32" height="20"/>
  <rect x="324.5" y="54" fill="#000000" stroke="#A6A8AB" stroke-miterlimit="10" width="32" height="20"/>
  <text transform="matrix(1 0 0 1 30.5 13.1665)" fill="#231F20" font-family="Arial" font-size="14">AOT60 berekend met RIO-IFDM ((μg/m³).uren)</text>
  <text transform="matrix(1 0 0 1 200.7148 34.6665)" fill="#231F20" font-family="Arial" font-size="14">Streefwaarde</text>
  <line fill="none" stroke="#231F20" stroke-miterlimit="10" x1="228.5" y1="43.5" x2="228.5" y2="74"/>
  <text transform="matrix(0.7071 -0.7071 0.7071 0.7071 14.9805 134.6426)" fill="#231F20" font-family="Arial" font-size="14">0 - 1.000</text>
  <text transform="matrix(0.7071 -0.7071 0.7071 0.7071 30.1387 150.166)" fill="#231F20" font-family="Arial" font-size="14">1.001 - 2.000</text>
  <text transform="matrix(0.7071 -0.7071 0.7071 0.7071 56.0527 150.166)" fill="#231F20" font-family="Arial" font-size="14">2.001 - 3.000</text>
  <text transform="matrix(0.7071 -0.7071 0.7071 0.7071 89.9668 150.166)" fill="#231F20" font-family="Arial" font-size="14">3.001 - 4.000</text>
  <text transform="matrix(0.7071 -0.7071 0.7071 0.7071 126.1377 150.166)" fill="#231F20" font-family="Arial" font-size="14">4.001 - 5.000</text>
  <text transform="matrix(0.7071 -0.7071 0.7071 0.7071 158.3076 150.166)" fill="#231F20" font-family="Arial" font-size="14">5.001 - 5.800</text>
  <text transform="matrix(0.7071 -0.7071 0.7071 0.7071 190.4785 150.166)" fill="#231F20" font-family="Arial" font-size="14">5.801 - 7.000</text>
  <text transform="matrix(0.7071 -0.7071 0.7071 0.7071 222.6484 150.166)" fill="#231F20" font-family="Arial" font-size="14">7.001 - 10.000</text>
  <text transform="matrix(0.7071 -0.7071 0.7071 0.7071 249.3125 155.6719)" fill="#231F20" font-family="Arial" font-size="14">10.001 - 50.000</text>
  <text transform="matrix(0.7071 -0.7071 0.7071 0.7071 287.5527 150.6016)" fill="#231F20" font-family="Arial" font-size="14">15.001 - max</text>
</svg>
