<?xml version="1.0" encoding="UTF-8"?>
<!DOCTYPE svg PUBLIC "-//W3C//DTD SVG 1.1//EN" "http://www.w3.org/Graphics/SVG/1.1/DTD/svg11.dtd">
<svg version="1.1" id="Layer_1" xmlns="http://www.w3.org/2000/svg" xmlns:xlink="http://www.w3.org/1999/xlink" x="0px" y="0px"	 width="366.5px" height="155.5px" viewBox="0 0 366.5 155.5" enable-background="new 0 0 366.5 155.5" xml:space="preserve">
  <rect x="36.5" y="49" fill="#0000FF" stroke="#A6A8AB" stroke-miterlimit="10" width="32" height="20"/>
  <rect x="68.5" y="49" fill="#007EFD" stroke="#A6A8AB" stroke-miterlimit="10" width="32" height="20"/>
  <rect x="100.5" y="49" fill="#009800" stroke="#A6A8AB" stroke-miterlimit="10" width="32" height="20"/>
  <rect x="132.5" y="49" fill="#00FF00" stroke="#A6A8AB" stroke-miterlimit="10" width="32" height="20"/>
  <rect x="164.5" y="49" fill="#CCFF33" stroke="#A6A8AB" stroke-miterlimit="10" width="32" height="20"/>
  <rect x="196.5" y="49" fill="#F8E748" stroke="#A6A8AB" stroke-miterlimit="10" width="32" height="20"/>
  <rect x="228.5" y="49" fill="#FF8000" stroke="#A6A8AB" stroke-miterlimit="10" width="32" height="20"/>
  <rect x="260.5" y="49" fill="#FF0000" stroke="#A6A8AB" stroke-miterlimit="10" width="32" height="20"/>
  <rect x="292.5" y="49" fill="#C00000" stroke="#A6A8AB" stroke-miterlimit="10" width="32" height="20"/>
  <rect x="324.5" y="49" fill="#5A0000" stroke="#A6A8AB" stroke-miterlimit="10" width="32" height="20"/>
  <text transform="matrix(0.7071 -0.7071 0.7071 0.7071 24.9805 112.6426)" fill="#231F20" font-family="Arial" font-size="14">0 - 250</text>
  <text transform="matrix(1 0 0 1 7.5 16.1665)" fill="#231F20" font-family="Arial" font-size="14">AOT60 (μg/m³).uren</text>
  <text transform="matrix(1 0 0 1 219.7148 33.6665)" fill="#231F20" font-family="Arial" font-size="14">Streefwaarde</text>
  <line fill="none" stroke="#231F20" stroke-miterlimit="10" x1="260.5" y1="38.5" x2="260.5" y2="78.5"/>
  <text transform="matrix(1 0 0 1 439.6953 283.4648)" font-family="'MyriadPro-Regular'" font-size="12">³μ</text>
  <text transform="matrix(0.7071 -0.7071 0.7071 0.7071 46.1387 123.6543)" fill="#231F20" font-family="Arial" font-size="14">251 - 500</text>
  <text transform="matrix(0.7071 -0.7071 0.7071 0.7071 70.0527 131.9102)" fill="#231F20" font-family="Arial" font-size="14">501 - 1000</text>
  <text transform="matrix(0.7071 -0.7071 0.7071 0.7071 93.9668 140.166)" fill="#231F20" font-family="Arial" font-size="14">1001 - 2000</text>
  <text transform="matrix(0.7071 -0.7071 0.7071 0.7071 126.1377 140.166)" fill="#231F20" font-family="Arial" font-size="14">2001 - 3000</text>
  <text transform="matrix(0.7071 -0.7071 0.7071 0.7071 158.3076 140.166)" fill="#231F20" font-family="Arial" font-size="14">3001 - 4000</text>
  <text transform="matrix(0.7071 -0.7071 0.7071 0.7071 190.4785 140.166)" fill="#231F20" font-family="Arial" font-size="14">4001 - 5800</text>
  <text transform="matrix(0.7071 -0.7071 0.7071 0.7071 222.6484 140.166)" fill="#231F20" font-family="Arial" font-size="14">5801 - 8000</text>
  <text transform="matrix(0.7071 -0.7071 0.7071 0.7071 249.3125 145.6719)" fill="#231F20" font-family="Arial" font-size="14">8001 - 10 000</text>
  <text transform="matrix(0.7071 -0.7071 0.7071 0.7071 287.5527 139.6016)" fill="#231F20" font-family="Arial" font-size="14">> 10 000</text>
</svg>
