<?xml version="1.0" encoding="UTF-8"?>
<!DOCTYPE svg PUBLIC "-//W3C//DTD SVG 1.1//EN" "http://www.w3.org/Graphics/SVG/1.1/DTD/svg11.dtd">
<svg version="1.1" id="Layer_1" xmlns="http://www.w3.org/2000/svg" xmlns:xlink="http://www.w3.org/1999/xlink" x="0px" y="0px"	 width="366.5px" height="155.5px" viewBox="0 0 366.5 155.5" enable-background="new 0 0 366.5 155.5" xml:space="preserve">
  <rect x="36.5" y="49" fill="#0000FF" stroke="#A6A8AB" stroke-miterlimit="10" width="32" height="20"/>
  <rect x="68.5" y="49" fill="#007EFD" stroke="#A6A8AB" stroke-miterlimit="10" width="32" height="20"/>
  <rect x="100.5" y="49" fill="#009800" stroke="#A6A8AB" stroke-miterlimit="10" width="32" height="20"/>
  <rect x="132.5" y="49" fill="#00FF00" stroke="#A6A8AB" stroke-miterlimit="10" width="32" height="20"/>
  <rect x="164.5" y="49" fill="#CCFF33" stroke="#A6A8AB" stroke-miterlimit="10" width="32" height="20"/>
  <rect x="196.5" y="49" fill="#F8E748" stroke="#A6A8AB" stroke-miterlimit="10" width="32" height="20"/>
  <rect x="228.5" y="49" fill="#FF8000" stroke="#A6A8AB" stroke-miterlimit="10" width="32" height="20"/>
  <rect x="260.5" y="49" fill="#FF0000" stroke="#A6A8AB" stroke-miterlimit="10" width="32" height="20"/>
  <rect x="292.5" y="49" fill="#C00000" stroke="#A6A8AB" stroke-miterlimit="10" width="32" height="20"/>
  <rect x="324.5" y="49" fill="#5A0000" stroke="#A6A8AB" stroke-miterlimit="10" width="32" height="20"/>
  <text transform="matrix(0.7071 -0.7071 0.7071 0.7071 19.9805 119.166)" fill="#231F20" font-family="Arial" font-size="14">0 - 2.000</text>
  <text transform="matrix(1 0 0 1 7.5 16.1665)" fill="#231F20" font-family="Arial" font-size="14">AOT40 (μg/m³).uren</text>
  <text transform="matrix(1 0 0 1 250.79 33.6665)" fill="#231F20" font-family="Arial" font-size="14">Streefwaarde</text>
  <line fill="none" stroke="#231F20" stroke-miterlimit="10" x1="292.425" y1="38.5" x2="292.425" y2="78.5"/>
  <text transform="matrix(1 0 0 1 439.6953 283.4648)" font-family="'MyriadPro-Regular'" font-size="12">³μ</text>
  <text transform="matrix(0.7071 -0.7071 0.7071 0.7071 32.0527 138.166)" fill="#231F20" font-family="Arial" font-size="14">2.001 - 4.000</text>
  <text transform="matrix(0.7071 -0.7071 0.7071 0.7071 64.4902 138.166)" fill="#231F20" font-family="Arial" font-size="14">4.001 - 6.000</text>
  <text transform="matrix(0.7071 -0.7071 0.7071 0.7071 96.9277 138.166)" fill="#231F20" font-family="Arial" font-size="14">6.001 - 8.000</text>
  <text transform="matrix(0.7071 -0.7071 0.7071 0.7071 123.3662 143.6602)" fill="#231F20" font-family="Arial" font-size="14">8.001 - 10.000</text>
  <text transform="matrix(0.7071 -0.7071 0.7071 0.7071 151.8027 149.166)" fill="#231F20" font-family="Arial" font-size="14">10.001 - 12.000</text>
  <text transform="matrix(0.7071 -0.7071 0.7071 0.7071 184.2402 149.166)" fill="#231F20" font-family="Arial" font-size="14">12.001 - 15.000</text>
  <text transform="matrix(0.7071 -0.7071 0.7071 0.7071 216.6777 149.166)" fill="#231F20" font-family="Arial" font-size="14">15.001 - 18.000</text>
  <text transform="matrix(0.7071 -0.7071 0.7071 0.7071 247.1152 149.416)" fill="#231F20" font-family="Arial" font-size="14">18.001 - 20.000</text>
  <text transform="matrix(0.7071 -0.7071 0.7071 0.7071 287.5527 137.166)" fill="#231F20" font-family="Arial" font-size="14">20.001 - max</text>
  <line fill="none" stroke="#231F20" stroke-miterlimit="10" x1="132.5" y1="38.5" x2="132.5" y2="78.5"/>
  <text transform="matrix(1 0 0 1 120.375 33.6665)" fill="#231F20" font-family="Arial" font-size="14">LTD</text>
</svg>
