<?xml version="1.0" encoding="UTF-8" standalone="no"?>
<svg id="Layer_1" xmlns:rdf="http://www.w3.org/1999/02/22-rdf-syntax-ns#" xmlns="http://www.w3.org/2000/svg" enable-background="new 0 0 130 350" xml:space="preserve" height="350px" viewBox="0 0 130 350" width="130px" version="1.1" y="0px" x="0px" xmlns:cc="http://creativecommons.org/ns#" xmlns:dc="http://purl.org/dc/elements/1.1/"><metadata id="metadata3472"><rdf:RDF><cc:Work rdf:about=""><dc:format>image/svg+xml</dc:format><dc:type rdf:resource="http://purl.org/dc/dcmitype/StillImage"/><dc:title/></cc:Work></rdf:RDF></metadata><rect id="rect3410" height="18.837" width="28.573" y="21.858" x="5.9002" fill="#00f"/><rect id="rect3412" height="18.837" width="28.573" y="44.048" x="5.9002" fill="#007efd"/><rect id="rect3414" height="18.837" width="28.573" y="66.237" x="5.9002" fill="#009800"/><rect id="rect3416" height="18.837" width="28.573" y="88.426" x="5.9002" fill="#0f0"/><rect id="rect3418" height="18.837" width="28.573" y="110.62" x="5.9002" fill="#cf3"/><rect id="rect3420" height="18.837" width="28.573" y="132.81" x="5.9002" fill="#f8e748"/><rect id="rect3422" height="18.837" width="28.573" y="154.99" x="5.9002" fill="#ff8000"/><rect id="rect3424" height="18.837" width="28.573" y="177.19" x="5.9002" fill="#f00"/><rect id="rect3426" height="18.837" width="28.573" y="199.37" x="5.9002" fill="#c00000"/><rect id="rect3428" height="18.837" width="28.573" y="221.56" x="5.9002" fill="#5a0000"/><g font-size="13.383px" font-family="Arial" fill="#231f20"><text id="text3430" transform="scale(.96420 1.0371)" y="34.239586" x="45.172604">0 - 3000</text>
<text id="text3432" transform="scale(.96420 1.0371)" y="55.978485" x="45.172604">3001 - 6000</text>
<text id="text3434" transform="scale(.96420 1.0371)" y="77.373917" x="45.172604">6001 - 10000</text>
<text id="text3436" transform="scale(.96420 1.0371)" y="98.768768" x="45.172604">10001 - 12000</text>
<text id="text3438" transform="scale(.96420 1.0371)" y="120.1642" x="45.172604">12001 - 15000</text>
<text id="text3440" transform="scale(.96420 1.0371)" y="141.55867" x="45.172604">15001 - 18000</text>
<text id="text3442" transform="scale(.96420 1.0371)" y="162.95448" x="45.172604">18001 - 20000</text>
<text id="text3444" transform="scale(.96420 1.0371)" y="184.3503" x="45.172604">20001 - 22000</text>
<text id="text3446" transform="scale(.96420 1.0371)" y="205.74524" x="45.172604">22001 - 24000</text>
<text id="text3448" transform="scale(.96420 1.0371)" y="227.48415" x="45.172604">24001 - max</text>
<text id="text3450" transform="scale(.96420 1.0371)" y="14.987295" x="4.0188069">microgram/m³</text>
</g><ellipse id="circle3452" rx="3.6869" ry="3.9658" stroke="#231f20" cy="254.85" cx="13.73" stroke-miterlimit="10" stroke-width=".95595" fill="#d0d2d3"/><ellipse id="circle3454" rx="3.6869" ry="3.9658" stroke="#231f20" cy="307.39" cx="13.73" stroke-miterlimit="10" stroke-width=".95595" fill="#fff"/><g font-size="11.471px" font-family="Arial" fill="#231f20"><text id="text3456" transform="scale(.96420 1.0371)" y="249.88159" x="24.282299">meetstation: kleur</text>
<text id="text3458" transform="scale(.96420 1.0371)" y="263.64722" x="24.282299">geeft de gemeten</text>
<text id="text3460" transform="scale(.96420 1.0371)" y="277.41287" x="24.282299">concentratie weer</text>
<text id="text3462" transform="scale(.96420 1.0371)" y="300.21219" x="24.282299">momenteel geen</text>
<text id="text3464" transform="scale(.96420 1.0371)" y="313.97781" x="24.282299">gegevens beschik-</text>
<text id="text3466" transform="scale(.96420 1.0371)" y="327.74347" x="24.282299">baar</text>
</g></svg>
