<?xml version="1.0" encoding="UTF-8"?>
<!DOCTYPE svg PUBLIC "-//W3C//DTD SVG 1.1//EN" "http://www.w3.org/Graphics/SVG/1.1/DTD/svg11.dtd">
<svg version="1.1" id="Layer_1" xmlns="http://www.w3.org/2000/svg" xmlns:xlink="http://www.w3.org/1999/xlink" x="0px" y="0px"	 width="366.5px" height="132px" viewBox="0 0 366.5 132" enable-background="new 0 0 366.5 132" xml:space="preserve">
  <rect x="36.5" y="49" fill="#0000FF" stroke="#A6A8AB" stroke-miterlimit="10" width="32" height="20"/>
  <rect x="68.5" y="49" fill="#0099FF" stroke="#A6A8AB" stroke-miterlimit="10" width="32" height="20"/>
  <rect x="100.5" y="49" fill="#009900" stroke="#A6A8AB" stroke-miterlimit="10" width="32" height="20"/>
  <rect x="132.5" y="49" fill="#00FF00" stroke="#A6A8AB" stroke-miterlimit="10" width="32" height="20"/>
  <rect x="164.5" y="49" fill="#FFFF00" stroke="#A6A8AB" stroke-miterlimit="10" width="32" height="20"/>
  <rect x="196.5" y="49" fill="#FFBB00" stroke="#A6A8AB" stroke-miterlimit="10" width="32" height="20"/>
  <rect x="228.5" y="49" fill="#FF6600" stroke="#A6A8AB" stroke-miterlimit="10" width="32" height="20"/>
  <rect x="260.5" y="49" fill="#FF0000" stroke="#A6A8AB" stroke-miterlimit="10" width="32" height="20"/>
  <rect x="292.5" y="49" fill="#CC0000" stroke="#A6A8AB" stroke-miterlimit="10" width="32" height="20"/>
  <rect x="324.5" y="49" fill="#990099" stroke="#A6A8AB" stroke-miterlimit="10" width="32" height="20"/>
  <text transform="matrix(0.7071 -0.7071 0.7071 0.7071 52.9805 89.5957)" fill="#231F20" font-family="Arial" font-size="14">0</text>
  <text transform="matrix(1 0 0 1 7.5 16.1665)" fill="#231F20" font-family="Arial" font-size="14">NET60 aantal dagen</text>
  <text transform="matrix(1 0 0 1 219.7148 33.6665)" fill="#231F20" font-family="Arial" font-size="14">Streefwaarde</text>
  <line fill="none" stroke="#231F20" stroke-miterlimit="10" x1="260.5" y1="38.5" x2="260.5" y2="78.5"/>
  <text transform="matrix(1 0 0 1 439.6953 283.4648)" font-family="'MyriadPro-Regular'" font-size="12">³μ</text>
  <text transform="matrix(0.7071 -0.7071 0.7071 0.7071 70.5195 103.8984)" fill="#231F20" font-family="Arial" font-size="14">1 - 3</text>
  <text transform="matrix(0.7071 -0.7071 0.7071 0.7071 102.3623 103.8984)" fill="#231F20" font-family="Arial" font-size="14">4 - 7</text>
  <text transform="matrix(0.7071 -0.7071 0.7071 0.7071 128.6992 109.4043)" fill="#231F20" font-family="Arial" font-size="14">8 - 10</text>
  <text transform="matrix(0.7071 -0.7071 0.7071 0.7071 155.7695 114.1758)" fill="#231F20" font-family="Arial" font-size="14">11 - 15</text>
  <text transform="matrix(0.7071 -0.7071 0.7071 0.7071 186.877 114.9102)" fill="#231F20" font-family="Arial" font-size="14">16 - 20</text>
  <text transform="matrix(0.7071 -0.7071 0.7071 0.7071 218.7178 114.9102)" fill="#231F20" font-family="Arial" font-size="14">21 - 25</text>
  <text transform="matrix(0.7071 -0.7071 0.7071 0.7071 250.5605 114.9102)" fill="#231F20" font-family="Arial" font-size="14">26 - 30</text>
  <text transform="matrix(0.7071 -0.7071 0.7071 0.7071 282.4023 114.9102)" fill="#231F20" font-family="Arial" font-size="14">31 - 40</text>
  <text transform="matrix(0.7071 -0.7071 0.7071 0.7071 306.5527 122.6016)" fill="#231F20" font-family="Arial" font-size="14">> 40</text>
</svg>
