<?xml version="1.0" encoding="UTF-8"?>
<!DOCTYPE svg PUBLIC "-//W3C//DTD SVG 1.1//EN" "http://www.w3.org/Graphics/SVG/1.1/DTD/svg11.dtd">
<svg version="1.1" id="Layer_1" xmlns="http://www.w3.org/2000/svg" xmlns:xlink="http://www.w3.org/1999/xlink" x="0px" y="0px"	 width="160px" height="350px" viewBox="0 0 130 350" enable-background="new 0 0 130 350" xml:space="preserve">
  <rect x="6" y="22" fill="#fef0d9" width="31" height="19"/>
  <rect x="6" y="44.381" fill="#fedcac" width="31" height="19"/>
  <rect x="6" y="66.762" fill="#fdc383" width="31" height="19"/>
  <rect x="6" y="89.143" fill="#fd9f67" width="31" height="19"/>
  <rect x="6" y="111.524" fill="#f57a4e" width="31" height="19"/>
  <rect x="6" y="133.905" fill="#ec603f" width="31" height="19"/>
  <rect x="6" y="156.286" fill="#cf2a1d" width="31" height="19"/>
  <rect x="6" y="178.667" fill="#b30000" width="31" height="19"/>
  <text transform="matrix(1 0 0 1 46.853 36.1304)" fill="#231F20" font-family="Arial" font-size="14"> 0.000 - 0.100 </text>
  <text transform="matrix(1 0 0 1 46.853 58.5112)" fill="#231F20" font-family="Arial" font-size="14"> 0.100 - 0.200 </text>
  <text transform="matrix(1 0 0 1 46.853 80.8926)" fill="#231F20" font-family="Arial" font-size="14"> 0.200 - 0.300 </text>
  <text transform="matrix(1 0 0 1 46.853 103.2734)" fill="#231F20" font-family="Arial" font-size="14"> 0.300 - 0.400 </text>
  <text transform="matrix(1 0 0 1 46.853 125.6548)" fill="#231F20" font-family="Arial" font-size="14"> 0.400 - 0.500 </text>
  <text transform="matrix(1 0 0 1 46.853 148.0362)" fill="#231F20" font-family="Arial" font-size="14"> 0.500 - 0.600 </text>
  <text transform="matrix(1 0 0 1 46.853 170.4176)" fill="#231F20" font-family="Arial" font-size="14"> 0.600 - 0.700 </text>
  <text transform="matrix(1 0 0 1 46.853 192.7990)" fill="#231F20" font-family="Arial" font-size="14"> 0.700 - 0.800 </text>
  <text font-size="14" font-family="Arial" transform="translate(3.8027 15.631)" fill="#231F20">Number of days / year</text>
</svg>
