<svg width="466.5px" height="160px" enable-background="new 0 0 366.5 155.5" version="1.1" viewBox="0 0 466.5 161.5" xml:space="preserve" xmlns="http://www.w3.org/2000/svg"><rect x="36.5" y="59" width="32" height="20" fill="#0066CC" stroke="#A6A8AB" stroke-miterlimit="10"/><rect x="68.5" y="59" width="32" height="20" fill="#009999" stroke="#A6A8AB" stroke-miterlimit="10"/><rect x="100.5" y="59" width="32" height="20" fill="#99CC66" stroke="#A6A8AB" stroke-miterlimit="10"/><rect x="132.5" y="59" width="32" height="20" fill="#FFFF33" stroke="#A6A8AB" stroke-miterlimit="10"/><rect x="164.5" y="59" width="32" height="20" fill="#FFCC00" stroke="#A6A8AB" stroke-miterlimit="10"/><rect x="196.5" y="59" width="32" height="20" fill="#FF6600" stroke="#A6A8AB" stroke-miterlimit="10"/><rect x="228.5" y="59" width="32" height="20" fill="#CC0000" stroke="#A6A8AB" stroke-miterlimit="10"/><rect x="260.5" y="59" width="32" height="20" fill="#990000" stroke="#A6A8AB" stroke-miterlimit="10"/><rect x="292.5" y="59" width="32" height="20" fill="#660066" stroke="#A6A8AB" stroke-miterlimit="10"/><rect x="324.5" y="59" width="32" height="20" fill="#000000" stroke="#A6A8AB" stroke-miterlimit="10"/><text transform="translate(7.5 36.166)" fill="#231F20" font-family="Arial" font-size="14">POD6 aardappel berekend met BEDOSE (mmol/m² bladoppervlak)</text>
<text transform="rotate(-45)" x="-50.334805" y="105.62065" fill="#231f20" font-family="Arial" font-size="14px" stroke-width=".99999">0 - 1</text>
<text transform="rotate(-45)" x="-50.677673" y="126.57836" fill="#231f20" font-family="Arial" font-size="14px" stroke-width=".99999">1,01 - 2</text>
<text transform="rotate(-45)" x="-27.792168" y="149.56641" fill="#231f20" font-family="Arial" font-size="14px" stroke-width=".99999">2,01 - 3</text>
<text transform="rotate(-45)" x="-6.2418466" y="171.0347" fill="#231f20" font-family="Arial" font-size="14px" stroke-width=".99999">3,01 - 4</text>
<text transform="rotate(-45)" x="17.783125" y="195.03915" fill="#231f20" font-family="Arial" font-size="14px" stroke-width=".99999">4,01 - 5</text>
<text transform="rotate(-45)" x="40.3965" y="217.58417" fill="#231f20" font-family="Arial" font-size="14px" stroke-width=".99999">5,01 - 7</text>
<text transform="rotate(-45)" x="56.877026" y="241.99431" fill="#231f20" font-family="Arial" font-size="14px" stroke-width=".99999">7,01 - 10</text>
<text transform="rotate(-45)" x="72.733101" y="265.57492" fill="#231f20" font-family="Arial" font-size="14px" stroke-width=".99999">10,01 - 12</text>
<text transform="rotate(-45)" x="94.612518" y="287.45435" fill="#231f20" font-family="Arial" font-size="14px" stroke-width=".99999">12,01 - 15</text>
<text transform="rotate(-45)" x="118.23466" y="311.19952" fill="#231f20" font-family="Arial" font-size="14px" stroke-width=".99999">15,01 - 18</text>
</svg>
