<svg width="466.5px" height="160px" enable-background="new 0 0 366.5 155.5" version="1.1" viewBox="0 0 466.5 161.5" xml:space="preserve" xmlns="http://www.w3.org/2000/svg">
<rect x="36.5" y="59" width="32" height="20" fill="#0066CC" stroke="#A6A8AB" stroke-miterlimit="10"/><rect x="68.5" y="59" width="32" height="20" fill="#009999" stroke="#A6A8AB" stroke-miterlimit="10"/>
<rect x="100.5" y="59" width="32" height="20" fill="#99CC66" stroke="#A6A8AB" stroke-miterlimit="10"/><rect x="132.5" y="59" width="32" height="20" fill="#FFFF33" stroke="#A6A8AB" stroke-miterlimit="10"/>
<rect x="164.5" y="59" width="32" height="20" fill="#FFCC00" stroke="#A6A8AB" stroke-miterlimit="10"/><rect x="196.5" y="59" width="32" height="20" fill="#FF6600" stroke="#A6A8AB" stroke-miterlimit="10"/>
<rect x="228.5" y="59" width="32" height="20" fill="#CC0000" stroke="#A6A8AB" stroke-miterlimit="10"/><rect x="260.5" y="59" width="32" height="20" fill="#990000" stroke="#A6A8AB" stroke-miterlimit="10"/>
<rect x="292.5" y="59" width="32" height="20" fill="#660066" stroke="#A6A8AB" stroke-miterlimit="10"/><rect x="324.5" y="59" width="32" height="20" fill="#000000" stroke="#A6A8AB" stroke-miterlimit="10"/>
<text transform="translate(7.5 36.166)" fill="#231F20" font-family="Arial" font-size="14">POD6 tarwe berekend met BEDOSE (mmol/m² bladoppervlak)</text>
<text transform="rotate(-45)" x="-62.470509" y="104.86935" fill="#231f20" font-family="Arial" font-size="14px" stroke-width=".99999">0 - 0,3</text>
<text transform="rotate(-45)" x="-60.081657" y="126.62422" fill="#231f20" font-family="Arial" font-size="14px" stroke-width=".99999">0,31 - 0,5</text>
<text transform="rotate(-45)" x="-36.499298" y="150.32964" fill="#231f20" font-family="Arial" font-size="14px" stroke-width=".99999">0,51 - 0,8</text>
<text transform="rotate(-45)" x="-14.242285" y="172.53195" fill="#231f20" font-family="Arial" font-size="14px" stroke-width=".99999">0,81 - 1,0</text>
<text transform="rotate(-45)" x="9.1271029" y="195.93552" fill="#231f20" font-family="Arial" font-size="14px" stroke-width=".99999">1,01 - 1,3</text>
<text transform="rotate(-45)" x="31.651999" y="218.35788" fill="#231f20" font-family="Arial" font-size="14px" stroke-width=".99999">1,31 - 1,5</text>
<text transform="rotate(-45)" x="53.575485" y="240.4044" fill="#231f20" font-family="Arial" font-size="14px" stroke-width=".99999">1,51 - 1,8</text>
<text transform="rotate(-45)" x="77.179482" y="263.95374" fill="#231f20" font-family="Arial" font-size="14px" stroke-width=".99999">1,81 - 2,0</text>
<text transform="rotate(-45)" x="100.81721" y="287.5231" fill="#231f20" font-family="Arial" font-size="14px" stroke-width=".99999">2,01 - 2,5</text>
<text transform="rotate(-45)" x="123.19015" y="309.96439" fill="#231f20" font-family="Arial" font-size="14px" stroke-width=".99999">2,51 - 5,0</text>
</svg>
