<svg width="466.5px" height="160px" enable-background="new 0 0 366.5 155.5" version="1.1" viewBox="0 0 466.5 161.5" xml:space="preserve" xmlns="http://www.w3.org/2000/svg"><rect x="36.5" y="59" width="32" height="20" fill="#0066CC" stroke="#A6A8AB" stroke-miterlimit="10"/><rect x="68.5" y="59" width="32" height="20" fill="#009999" stroke="#A6A8AB" stroke-miterlimit="10"/><rect x="100.5" y="59" width="32" height="20" fill="#99CC66" stroke="#A6A8AB" stroke-miterlimit="10"/><rect x="132.5" y="59" width="32" height="20" fill="#FFFF33" stroke="#A6A8AB" stroke-miterlimit="10"/><rect x="164.5" y="59" width="32" height="20" fill="#FFCC00" stroke="#A6A8AB" stroke-miterlimit="10"/><rect x="196.5" y="59" width="32" height="20" fill="#FF6600" stroke="#A6A8AB" stroke-miterlimit="10"/><rect x="228.5" y="59" width="32" height="20" fill="#CC0000" stroke="#A6A8AB" stroke-miterlimit="10"/><rect x="260.5" y="59" width="32" height="20" fill="#990000" stroke="#A6A8AB" stroke-miterlimit="10"/><rect x="292.5" y="59" width="32" height="20" fill="#660066" stroke="#A6A8AB" stroke-miterlimit="10"/><rect x="324.5" y="59" width="32" height="20" fill="#000000" stroke="#A6A8AB" stroke-miterlimit="10"/><text transform="translate(7.5 36.166)" fill="#231F20" font-family="Arial" font-size="14">POD1 grasland berekend met BEDOSE (mmol/m² bladoppervlak)</text>
<text transform="rotate(-45)" x="-62.490925" y="105.60351" fill="#231f20" font-family="Arial" font-size="14px" stroke-width=".99999">0 - 6,6</text>
<text transform="rotate(-45)" x="-60.462444" y="127.00503" fill="#231f20" font-family="Arial" font-size="14px" stroke-width=".99999">6,6 - 10,2</text>
<text transform="rotate(-45)" x="-43.926857" y="151.33359" fill="#231f20" font-family="Arial" font-size="14px" stroke-width=".99999">10,2 - 16,2</text>
<text transform="rotate(-45)" x="-17.64876" y="173.79723" fill="#231f20" font-family="Arial" font-size="14px" stroke-width=".99999">16,21 - 20</text>
<text transform="rotate(-45)" x="11.799329" y="195.4045" fill="#231f20" font-family="Arial" font-size="14px" stroke-width=".99999">20,1 - 24</text>
<text transform="rotate(-45)" x="34.221691" y="217.9294" fill="#231f20" font-family="Arial" font-size="14px" stroke-width=".99999">24,1 - 28</text>
<text transform="rotate(-45)" x="57.338818" y="240.92348" fill="#231f20" font-family="Arial" font-size="14px" stroke-width=".99999">28,1 - 32</text>
<text transform="rotate(-45)" x="79.797043" y="263.47742" fill="#231f20" font-family="Arial" font-size="14px" stroke-width=".99999">32,1 - 36</text>
<text transform="rotate(-45)" x="103.41426" y="287.06729" fill="#231f20" font-family="Arial" font-size="14px" stroke-width=".99999">36,1 - 40</text>
<text transform="rotate(-45)" x="125.10763" y="308.76065" fill="#231f20" font-family="Arial" font-size="14px" stroke-width=".99999">40,1 - 50</text>
</svg>
