<?xml version="1.0" encoding="UTF-8"?>
<!DOCTYPE svg PUBLIC "-//W3C//DTD SVG 1.1//EN" "http://www.w3.org/Graphics/SVG/1.1/DTD/svg11.dtd">
<svg version="1.1" id="Layer_1" xmlns="http://www.w3.org/2000/svg" xmlns:xlink="http://www.w3.org/1999/xlink" x="0px" y="0px"	 width="466.5px" height="160px" viewBox="0 0 466.5 161.5" enable-background="new 0 0 366.5 155.5" xml:space="preserve">
  <rect x="36.5" y="59" fill="#0066CC" stroke="#A6A8AB" stroke-miterlimit="10" width="32" height="20"/>
  <rect x="68.5" y="59" fill="#009999" stroke="#A6A8AB" stroke-miterlimit="10" width="32" height="20"/>
  <rect x="100.5" y="59" fill="#99CC66" stroke="#A6A8AB" stroke-miterlimit="10" width="32" height="20"/>
  <rect x="132.5" y="59" fill="#FFFF33" stroke="#A6A8AB" stroke-miterlimit="10" width="32" height="20"/>
  <rect x="164.5" y="59" fill="#FFCC00" stroke="#A6A8AB" stroke-miterlimit="10" width="32" height="20"/>
  <rect x="196.5" y="59" fill="#FF6600" stroke="#A6A8AB" stroke-miterlimit="10" width="32" height="20"/>
  <rect x="228.5" y="59" fill="#CC0000" stroke="#A6A8AB" stroke-miterlimit="10" width="32" height="20"/>
  <rect x="260.5" y="59" fill="#990000" stroke="#A6A8AB" stroke-miterlimit="10" width="32" height="20"/>
  <rect x="292.5" y="59" fill="#660066" stroke="#A6A8AB" stroke-miterlimit="10" width="32" height="20"/>
  <rect x="324.5" y="59" fill="#000000" stroke="#A6A8AB" stroke-miterlimit="10" width="32" height="20"/>
  <!--<text transform="matrix(1 0 0 1 7.5 16.1665)" fill="#231F20" font-family="Arial" font-size="14">AOT40 vegetatie berekend met RIO-IFDM ((μg/m³).uren)</text>-->
  <text transform="matrix(1 0 0 1 7.5 36.1665)" fill="#231F20" font-family="Arial" font-size="14">POD3 akkergewas berekend met BEDOSE (mmol/m² bladoppervlak)</text>
  <text transform="matrix(0.7071 -0.7071 0.7071 0.7071 29.9805 122.416)" fill="#231F20" font-family="Arial" font-size="14">0 - 1</text>
  <text transform="matrix(0.7071 -0.7071 0.7071 0.7071 47.0527 133.416)" fill="#231F20" font-family="Arial" font-size="14">1,01 - 2</text>
  <text transform="matrix(0.7071 -0.7071 0.7071 0.7071 80.4902 133.416)" fill="#231F20" font-family="Arial" font-size="14">2,01 - 3</text>
  <text transform="matrix(0.7071 -0.7071 0.7071 0.7071 111.9277 133.416)" fill="#231F20" font-family="Arial" font-size="14">3,01 - 4</text>
  <text transform="matrix(0.7071 -0.7071 0.7071 0.7071 143.3662 133.416)" fill="#231F20" font-family="Arial" font-size="14">4,01 - 5</text>
  <text transform="matrix(0.7071 -0.7071 0.7071 0.7071 175.8027 133.416)" fill="#231F20" font-family="Arial" font-size="14">5,01 - 7</text>
  <text transform="matrix(0.7071 -0.7071 0.7071 0.7071 206.2402 133.416)" fill="#231F20" font-family="Arial" font-size="14">7,01 - 10</text>
  <text transform="matrix(0.7071 -0.7071 0.7071 0.7071 234.6777 142.416)" fill="#231F20" font-family="Arial" font-size="14">10,01 - 12</text>
  <text transform="matrix(0.7071 -0.7071 0.7071 0.7071 265.1152 142.416)" fill="#231F20" font-family="Arial" font-size="14">12,01 - 15</text>
  <text transform="matrix(0.7071 -0.7071 0.7071 0.7071 292.5527 144.416)" fill="#231F20" font-family="Arial" font-size="14">15,01 - max</text>
</svg>
