<?xml version="1.0" encoding="UTF-8"?>
<!DOCTYPE svg PUBLIC "-//W3C//DTD SVG 1.1//EN" "http://www.w3.org/Graphics/SVG/1.1/DTD/svg11.dtd">
<svg version="1.1" id="Layer_1" xmlns="http://www.w3.org/2000/svg" xmlns:xlink="http://www.w3.org/1999/xlink" x="0px" y="0px"	 width="366.5px" height="132px" viewBox="0 0 366.5 132" enable-background="new 0 0 366.5 132" xml:space="preserve">
  <rect x="36.5" y="49" fill="#0000FF" stroke="#A6A8AB" stroke-miterlimit="10" width="32" height="20"/>
  <rect x="68.5" y="49" fill="#0099FF" stroke="#A6A8AB" stroke-miterlimit="10" width="32" height="20"/>
  <rect x="100.5" y="49" fill="#009900" stroke="#A6A8AB" stroke-miterlimit="10" width="32" height="20"/>
  <rect x="132.5" y="49" fill="#00FF00" stroke="#A6A8AB" stroke-miterlimit="10" width="32" height="20"/>
  <rect x="164.5" y="49" fill="#FFFF00" stroke="#A6A8AB" stroke-miterlimit="10" width="32" height="20"/>
  <rect x="196.5" y="49" fill="#FFBB00" stroke="#A6A8AB" stroke-miterlimit="10" width="32" height="20"/>
  <rect x="228.5" y="49" fill="#FF6600" stroke="#A6A8AB" stroke-miterlimit="10" width="32" height="20"/>
  <rect x="260.5" y="49" fill="#FF0000" stroke="#A6A8AB" stroke-miterlimit="10" width="32" height="20"/>
  <rect x="292.5" y="49" fill="#990000" stroke="#A6A8AB" stroke-miterlimit="10" width="32" height="20"/>
  <rect x="324.5" y="49" fill="#660000" stroke="#A6A8AB" stroke-miterlimit="10" width="32" height="20"/>
  <text transform="matrix(0.7071 -0.7071 0.7071 0.7071 40.9805 101.5957)" fill="#231F20" font-family="Arial" font-size="14">0 - 5</text>
  <text transform="matrix(1 0 0 1 7.5 16.1665)" fill="#231F20" font-family="Arial" font-size="14">PM</text>
  <text transform="matrix(0.583 0 0 0.583 28.5 20.8286)" fill="#231F20" font-family="Arial" font-size="14">10</text>
  <text transform="matrix(1 0 0 1 37.5781 16.1665)" fill="#231F20" font-family="Arial" font-size="14"> aantal overschrijdingsdagen</text>
  <text transform="matrix(1 0 0 1 203.7148 36.6665)" fill="#231F20" font-family="Arial" font-size="14">EU - grenswaarde</text>
  <line fill="none" stroke="#231F20" stroke-miterlimit="10" x1="260.5" y1="41" x2="260.5" y2="78.5"/>
  <text transform="matrix(1 0 0 1 439.6953 283.4648)" font-family="'MyriadPro-Regular'" font-size="12">³μ</text>
  <text transform="matrix(0.7071 -0.7071 0.7071 0.7071 69.2188 107.1016)" fill="#231F20" font-family="Arial" font-size="14">6 - 10</text>
  <text transform="matrix(0.7071 -0.7071 0.7071 0.7071 97.8252 111.873)" fill="#231F20" font-family="Arial" font-size="14">11 - 15</text>
  <text transform="matrix(0.7071 -0.7071 0.7071 0.7071 128.4492 112.6074)" fill="#231F20" font-family="Arial" font-size="14">16 - 20</text>
  <text transform="matrix(0.7071 -0.7071 0.7071 0.7071 159.4414 112.6074)" fill="#231F20" font-family="Arial" font-size="14">21 - 25</text>
  <text transform="matrix(0.7071 -0.7071 0.7071 0.7071 190.4326 112.6074)" fill="#231F20" font-family="Arial" font-size="14">26 - 30</text>
  <text transform="matrix(0.7071 -0.7071 0.7071 0.7071 221.4238 112.6074)" fill="#231F20" font-family="Arial" font-size="14">31 - 35</text>
  <text transform="matrix(0.7071 -0.7071 0.7071 0.7071 252.416 112.6074)" fill="#231F20" font-family="Arial" font-size="14">36 - 50</text>
  <text transform="matrix(0.7071 -0.7071 0.7071 0.7071 284.4062 112.6074)" fill="#231F20" font-family="Arial" font-size="14">51 - 70</text>
  <text transform="matrix(0.7071 -0.7071 0.7071 0.7071 309.5527 120.2988)" fill="#231F20" font-family="Arial" font-size="14">> 70</text>
</svg>
