<?xml version="1.0" encoding="UTF-8"?>
<!DOCTYPE svg PUBLIC "-//W3C//DTD SVG 1.1//EN" "http://www.w3.org/Graphics/SVG/1.1/DTD/svg11.dtd">
<svg version="1.1" id="Layer_1" xmlns="http://www.w3.org/2000/svg" xmlns:xlink="http://www.w3.org/1999/xlink" x="0px" y="0px"	 width="130px" height="344px" viewBox="0 0 130 344" enable-background="new 0 0 130 344" xml:space="preserve">
  <rect x="6" y="22" fill="#2b83ba" width="31" height="19"/>
  <rect x="6" y="44.381" fill="#59a3b2" width="31" height="19"/>
  <rect x="6" y="66.762" fill="#88c4aa" width="31" height="19"/>
  <rect x="6" y="89.143" fill="#b2e0a6" width="31" height="19"/>
  <rect x="6" y="111.524" fill="#d1ecb0" width="31" height="19"/>
  <rect x="6" y="133.905" fill="#eff8ba" width="31" height="19"/>
  <rect x="6" y="156.286" fill="#fef0ad" width="31" height="19"/>
  <rect x="6" y="178.668" fill="#fdd28b" width="31" height="19"/>
  <rect x="6" y="201.049" fill="#fdb569" width="31" height="19"/>
  <rect x="6" y="223.43" fill="#f2854e" width="31" height="19"/>
  <rect x="6" y="245.811" fill="#e44f35" width="31" height="19"/>
  <rect x="6" y="268.192" fill="#d7191c" width="31" height="19"/>
  <text transform="matrix(1 0 0 1 46.853 36.1304)" fill="#231F20" font-family="Arial" font-size="14"> 3.8 - 3.9 </text>
  <text transform="matrix(1 0 0 1 46.853 58.5112)" fill="#231F20" font-family="Arial" font-size="14"> 3.9 - 4.0 </text>
  <text transform="matrix(1 0 0 1 46.853 80.8926)" fill="#231F20" font-family="Arial" font-size="14"> 4.0 - 4.1 </text>
  <text transform="matrix(1 0 0 1 46.853 103.2734)" fill="#231F20" font-family="Arial" font-size="14"> 4.1 - 4.2 </text>
  <text transform="matrix(1 0 0 1 46.853 125.6548)" fill="#231F20" font-family="Arial" font-size="14"> 4.2 - 4.3 </text>
  <text transform="matrix(1 0 0 1 46.853 148.0352)" fill="#231F20" font-family="Arial" font-size="14"> 4.3 - 4.4 </text>
  <text transform="matrix(1 0 0 1 46.853 170.417)" fill="#231F20" font-family="Arial" font-size="14"> 4.4 - 4.5 </text>
  <text transform="matrix(1 0 0 1 46.853 192.7988)" fill="#231F20" font-family="Arial" font-size="14"> 4.5 - 4.6 </text>
  <text transform="matrix(1 0 0 1 46.853 215.1797)" fill="#231F20" font-family="Arial" font-size="14"> 4.6 - 4.7 </text>
  <text transform="matrix(1 0 0 1 46.853 237.5605)" fill="#231F20" font-family="Arial" font-size="14"> 4.7 - 4.8 </text>
  <text transform="matrix(1 0 0 1 46.853 259.9413)" fill="#231F20" font-family="Arial" font-size="14"> 4.8 - 4.9 </text>
  <text transform="matrix(1 0 0 1 46.853 282.3221)" fill="#231F20" font-family="Arial" font-size="14"> 4.9 - 5.0 </text>
  <text font-size="14" font-family="Arial" transform="translate(3.8027 15.631)" fill="#231F20">µg/m³</text>
</svg>
