<?xml version="1.0" encoding="UTF-8"?>
<!DOCTYPE svg PUBLIC "-//W3C//DTD SVG 1.1//EN" "http://www.w3.org/Graphics/SVG/1.1/DTD/svg11.dtd">
<svg version="1.1" id="Layer_1" xmlns="http://www.w3.org/2000/svg" xmlns:xlink="http://www.w3.org/1999/xlink" x="0px" y="0px"	 width="366.5px" height="132px" viewBox="0 0 366.5 132" enable-background="new 0 0 366.5 132" xml:space="preserve">
  <rect x="36.5" y="54" fill="#119999" stroke="#A6A8AB" stroke-miterlimit="10" width="32" height="20"/>
  <rect x="68.5" y="54" fill="#99DD77" stroke="#A6A8AB" stroke-miterlimit="10" width="32" height="20"/>
  <rect x="100.5" y="54" fill="#EEEE33" stroke="#A6A8AB" stroke-miterlimit="10" width="32" height="20"/>
  <rect x="132.5" y="54" fill="#FBD30B" stroke="#A6A8AB" stroke-miterlimit="10" width="32" height="20"/>
  <rect x="164.5" y="54" fill="#FF4411" stroke="#A6A8AB" stroke-miterlimit="10" width="32" height="20"/>
  <rect x="196.5" y="54" fill="#DD0000" stroke="#A6A8AB" stroke-miterlimit="10" width="32" height="20"/>
  <rect x="228.5" y="54" fill="#880000" stroke="#A6A8AB" stroke-miterlimit="10" width="32" height="20"/>
  <rect x="260.5" y="54" fill="#770077" stroke="#A6A8AB" stroke-miterlimit="10" width="32" height="20"/>
  <rect x="292.5" y="54" fill="#000000" stroke="#A6A8AB" stroke-miterlimit="10" width="32" height="20"/>
  <text transform="matrix(1 0 0 1 7.5 16.1665)" fill="#231F20" font-family="Arial" font-size="14">PM<tspan baseline-shift="sub" font-size="8px">10</tspan>-jaargemiddelde berekend met RIO-IFDM (μg/m³)</text>
  <text transform="matrix(1 0 0 1 98.7148 41.6665)" fill="#231F20" font-family="Arial" font-size="14">WGO-advieswaarde</text>
  <line fill="none" stroke="#231F20" stroke-miterlimit="10" x1="164.5" y1="44" x2="164.5" y2="74"/>
  <text transform="matrix(0.7071 -0.7071 0.7071 0.7071 34.9805 111.5957)" fill="#231F20" font-family="Arial" font-size="14">0 - 5</text>
  <text transform="matrix(0.7071 -0.7071 0.7071 0.7071 63.9473 113.3672)" fill="#231F20" font-family="Arial" font-size="14">6 - 10</text>
  <text transform="matrix(0.7071 -0.7071 0.7071 0.7071 94.9326 117.1016)" fill="#231F20" font-family="Arial" font-size="14">11 - 15</text>
  <text transform="matrix(0.7071 -0.7071 0.7071 0.7071 126.2852 117.1016)" fill="#231F20" font-family="Arial" font-size="14">16 - 20</text>
  <text transform="matrix(0.7071 -0.7071 0.7071 0.7071 157.6367 117.1016)" fill="#231F20" font-family="Arial" font-size="14">21 - 25</text>
  <text transform="matrix(0.7071 -0.7071 0.7071 0.7071 188.9893 117.1016)" fill="#231F20" font-family="Arial" font-size="14">26 - 30</text>
  <text transform="matrix(0.7071 -0.7071 0.7071 0.7071 220.3418 117.1016)" fill="#231F20" font-family="Arial" font-size="14">31 - 35</text>
  <text transform="matrix(0.7071 -0.7071 0.7071 0.7071 251.6934 117.1016)" fill="#231F20" font-family="Arial" font-size="14">36 - 40</text>
  <text transform="matrix(0.7071 -0.7071 0.7071 0.7071 281.0469 121.1016)" fill="#231F20" font-family="Arial" font-size="14">> 40</text>
</svg>
