<?xml version="1.0" encoding="UTF-8"?>
<!DOCTYPE svg PUBLIC "-//W3C//DTD SVG 1.1//EN" "http://www.w3.org/Graphics/SVG/1.1/DTD/svg11.dtd">
<svg version="1.1" id="Layer_1" xmlns="http://www.w3.org/2000/svg" xmlns:xlink="http://www.w3.org/1999/xlink" x="0px" y="0px"	 width="366.5px" height="132px" viewBox="0 0 366.5 132" enable-background="new 0 0 366.5 132" xml:space="preserve">
  <rect x="24.5" y="54" fill="#006699" stroke="#A6A8AB" stroke-miterlimit="10" width="32" height="20"/>
  <rect x="56.5" y="54" fill="#009999" stroke="#A6A8AB" stroke-miterlimit="10" width="32" height="20"/>
  <rect x="88.5" y="54" fill="#99CC66" stroke="#A6A8AB" stroke-miterlimit="10" width="32" height="20"/>
  <rect x="120.5" y="54" fill="#FFFF33" stroke="#A6A8AB" stroke-miterlimit="10" width="32" height="20"/>
  <rect x="152.5" y="54" fill="#FFCC00" stroke="#A6A8AB" stroke-miterlimit="10" width="32" height="20"/>
  <rect x="184.5" y="54" fill="#FF6600" stroke="#A6A8AB" stroke-miterlimit="10" width="32" height="20"/>
  <rect x="216.5" y="54" fill="#CC0000" stroke="#A6A8AB" stroke-miterlimit="10" width="32" height="20"/>
  <rect x="248.5" y="54" fill="#990000" stroke="#A6A8AB" stroke-miterlimit="10" width="32" height="20"/>
  <rect x="280.5" y="54" fill="#660066" stroke="#A6A8AB" stroke-miterlimit="10" width="32" height="20"/>
  <rect x="312.5" y="54" fill="#000000" stroke="#A6A8AB" stroke-miterlimit="10" width="32" height="20"/>
  <text transform="matrix(1 0 0 1 7.5 16.1665)" fill="#231F20" font-family="Arial" font-size="14">PM<tspan baseline-shift="sub" font-size="8px">10</tspan>-jaargemiddelde berekend met ATMO-Street (μg/m³)</text>
  <text transform="matrix(1 0 0 1 98.7148 41.6665)" fill="#231F20" font-family="Arial" font-size="14">WGO-advieswaarde</text>
  <line fill="none" stroke="#231F20" stroke-miterlimit="10" x1="120.5" y1="44" x2="120.5" y2="74"/>
  <text transform="matrix(0.7071 -0.7071 0.7071 0.7071 24.9805 111.5957)" fill="#231F20" font-family="Arial" font-size="14">0 - 5</text>
  <text transform="matrix(0.7071 -0.7071 0.7071 0.7071 54.9805 113.5957)" fill="#231F20" font-family="Arial" font-size="14">6 - 10</text>
  <text transform="matrix(0.7071 -0.7071 0.7071 0.7071 84.9473 115.3672)" fill="#231F20" font-family="Arial" font-size="14">11 - 15</text>
  <text transform="matrix(0.7071 -0.7071 0.7071 0.7071 110.9326 117.1016)" fill="#231F20" font-family="Arial" font-size="14">16 - 20</text>
  <text transform="matrix(0.7071 -0.7071 0.7071 0.7071 146.2852 117.1016)" fill="#231F20" font-family="Arial" font-size="14">21 - 25</text>
  <text transform="matrix(0.7071 -0.7071 0.7071 0.7071 177.6367 117.1016)" fill="#231F20" font-family="Arial" font-size="14">26 - 30</text>
  <text transform="matrix(0.7071 -0.7071 0.7071 0.7071 208.9893 117.1016)" fill="#231F20" font-family="Arial" font-size="14">31 - 35</text>
  <text transform="matrix(0.7071 -0.7071 0.7071 0.7071 240.3418 117.1016)" fill="#231F20" font-family="Arial" font-size="14">36 - 40</text>
  <text transform="matrix(0.7071 -0.7071 0.7071 0.7071 271.6934 117.1016)" fill="#231F20" font-family="Arial" font-size="14">41 - 45</text>
  <text transform="matrix(0.7071 -0.7071 0.7071 0.7071 311.0469 112.1016)" fill="#231F20" font-family="Arial" font-size="14">> 45</text>
</svg>
