<?xml version="1.0" encoding="UTF-8"?>
<!DOCTYPE svg PUBLIC "-//W3C//DTD SVG 1.1//EN" "http://www.w3.org/Graphics/SVG/1.1/DTD/svg11.dtd">
<svg version="1.1" id="Layer_1" xmlns="http://www.w3.org/2000/svg" xmlns:xlink="http://www.w3.org/1999/xlink" x="0px" y="0px"	 width="366.5px" height="132px" viewBox="0 0 366.5 132" enable-background="new 0 0 366.5 132" xml:space="preserve">
  <rect x="36.5" y="54" fill="#009999" stroke="#A6A8AB" stroke-miterlimit="10" width="32" height="20"/>
  <rect x="68.5" y="54" fill="#99CC66" stroke="#A6A8AB" stroke-miterlimit="10" width="32" height="20"/>
  <rect x="100.5" y="54" fill="#FFCC00" stroke="#A6A8AB" stroke-miterlimit="10" width="32" height="20"/>
  <rect x="132.5" y="54" fill="#FF6600" stroke="#A6A8AB" stroke-miterlimit="10" width="32" height="20"/>
  <rect x="164.5" y="54" fill="#CC0000" stroke="#A6A8AB" stroke-miterlimit="10" width="32" height="20"/>
  <rect x="196.5" y="54" fill="#990000" stroke="#A6A8AB" stroke-miterlimit="10" width="32" height="20"/>
  <rect x="228.5" y="54" fill="#660066" stroke="#A6A8AB" stroke-miterlimit="10" width="32" height="20"/>
  <rect x="260.5" y="54" fill="#330033" stroke="#A6A8AB" stroke-miterlimit="10" width="32" height="20"/>
  <rect x="292.5" y="54" fill="#000000" stroke="#A6A8AB" stroke-miterlimit="10" width="32" height="20"/>
  <text transform="matrix(1 0 0 1 7.5 16.1665)" fill="#231F20" font-family="Arial" font-size="14">PM<tspan baseline-shift="sub" font-size="8px">2.5</tspan>-jaargemiddelde berekend met RIO-IFDM (μg/m³)</text>
  <!--<text transform="matrix(0.583 0 0 0.583 28.5 20.8286)" fill="#231F20" font-family="Arial" font-size="14">2.5</text>
  <text transform="matrix(1 0 0 1 42.8467 16.1665)" fill="#231F20" font-family="Arial" font-size="14">-jaargemiddelde berekend met RIO-IFDM(μg/m³)</text>-->
  <text transform="matrix(1 0 0 1 63.7148 41.6665)" fill="#231F20" font-family="Arial" font-size="14">WGO-advieswaarde</text>
  <line fill="none" stroke="#231F20" stroke-miterlimit="10" x1="132.5" y1="44" x2="132.5" y2="74"/>
  <text transform="matrix(1 0 0 1 247.7148 41.6665)" fill="#231F20" font-family="Arial" font-size="14">EU-grenswaarde</text>
  <line fill="none" stroke="#231F20" stroke-miterlimit="10" x1="292.5" y1="44" x2="292.5" y2="74"/>
  <text transform="matrix(0.7071 -0.7071 0.7071 0.7071 36.9805 107.0898)" fill="#231F20" font-family="Arial" font-size="14">0 - 4</text>
  <text transform="matrix(0.7071 -0.7071 0.7071 0.7071 70.416 107.0898)" fill="#231F20" font-family="Arial" font-size="14">5 - 7</text>
  <text transform="matrix(0.7071 -0.7071 0.7071 0.7071 98.0996 112.5957)" fill="#231F20" font-family="Arial" font-size="14">8 - 10</text>
  <text transform="matrix(0.7071 -0.7071 0.7071 0.7071 125.1504 116.3672)" fill="#231F20" font-family="Arial" font-size="14">11 - 13</text>
  <text transform="matrix(0.7071 -0.7071 0.7071 0.7071 156.2188 118.1016)" fill="#231F20" font-family="Arial" font-size="14">14 - 16</text>
  <text transform="matrix(0.7071 -0.7071 0.7071 0.7071 187.6543 118.1016)" fill="#231F20" font-family="Arial" font-size="14">17 - 19</text>
  <text transform="matrix(0.7071 -0.7071 0.7071 0.7071 219.0908 118.1016)" fill="#231F20" font-family="Arial" font-size="14">20 - 22</text>
  <text transform="matrix(0.7071 -0.7071 0.7071 0.7071 252.5264 118.1016)" fill="#231F20" font-family="Arial" font-size="14">23 - 25</text>
  <text transform="matrix(0.7071 -0.7071 0.7071 0.7071 284.9629 120.1016)" fill="#231F20" font-family="Arial" font-size="14">> 25</text>
</svg>
