<?xml version="1.0" encoding="UTF-8"?>
<!DOCTYPE svg PUBLIC "-//W3C//DTD SVG 1.1//EN" "http://www.w3.org/Graphics/SVG/1.1/DTD/svg11.dtd">
<svg version="1.1" id="Layer_1" xmlns="http://www.w3.org/2000/svg" xmlns:xlink="http://www.w3.org/1999/xlink" x="0px" y="0px"	 width="366.5px" height="132px" viewBox="0 0 366.5 132" enable-background="new 0 0 366.5 132" xml:space="preserve">
  <rect x="36.5" y="49" fill="#0000FF" stroke="#A6A8AB" stroke-miterlimit="10" width="32" height="20"/>
  <rect x="68.5" y="49" fill="#0099FF" stroke="#A6A8AB" stroke-miterlimit="10" width="32" height="20"/>
  <rect x="100.5" y="49" fill="#009900" stroke="#A6A8AB" stroke-miterlimit="10" width="32" height="20"/>
  <rect x="132.5" y="49" fill="#00FF00" stroke="#A6A8AB" stroke-miterlimit="10" width="32" height="20"/>
  <rect x="164.5" y="49" fill="#FFFF00" stroke="#A6A8AB" stroke-miterlimit="10" width="32" height="20"/>
  <rect x="196.5" y="49" fill="#FFBB00" stroke="#A6A8AB" stroke-miterlimit="10" width="32" height="20"/>
  <rect x="228.5" y="49" fill="#FF6600" stroke="#A6A8AB" stroke-miterlimit="10" width="32" height="20"/>
  <rect x="260.5" y="49" fill="#FF0000" stroke="#A6A8AB" stroke-miterlimit="10" width="32" height="20"/>
  <rect x="292.5" y="49" fill="#CC0000" stroke="#A6A8AB" stroke-miterlimit="10" width="32" height="20"/>
  <rect x="324.5" y="49" fill="#990099" stroke="#A6A8AB" stroke-miterlimit="10" width="32" height="20"/>
  <text transform="matrix(1 0 0 1 7.5 16.1665)" fill="#231F20" font-family="Arial" font-size="14">PM<tspan baseline-shift="sub" font-size="8px">2.5</tspan>-jaargemiddelde berekend met ATMO-Street (μg/m³)</text>
  <text transform="matrix(1 0 0 1 253.7148 36.6665)" fill="#231F20" font-family="Arial" font-size="14">EU-grenswaarde</text>
  <line fill="none" stroke="#231F20" stroke-miterlimit="10" x1="324.5" y1="41" x2="324.5" y2="69"/>
  <text transform="matrix(0.7071 -0.7071 0.7071 0.7071 24.9805 117.0898)" fill="#231F20" font-family="Arial" font-size="14">0 - 1.5</text>
  <text transform="matrix(0.7071 -0.7071 0.7071 0.7071 56.416 122.0898)" fill="#231F20" font-family="Arial" font-size="14">1.6 - 2.5</text>
  <text transform="matrix(0.7071 -0.7071 0.7071 0.7071 88.0996 117.5957)" fill="#231F20" font-family="Arial" font-size="14">2.6 - 3.5</text>
  <text transform="matrix(0.7071 -0.7071 0.7071 0.7071 115.1504 122.3672)" fill="#231F20" font-family="Arial" font-size="14">3.6 - 5.0</text>
  <text transform="matrix(0.7071 -0.7071 0.7071 0.7071 146.2188 123.1016)" fill="#231F20" font-family="Arial" font-size="14">5.1 - 7.5</text>
  <text transform="matrix(0.7071 -0.7071 0.7071 0.7071 177.6543 123.1016)" fill="#231F20" font-family="Arial" font-size="14">7.6 - 10.5</text>
  <text transform="matrix(0.7071 -0.7071 0.7071 0.7071 209.0908 128.1016)" fill="#231F20" font-family="Arial" font-size="14">10.6 - 12.5</text>
  <text transform="matrix(0.7071 -0.7071 0.7071 0.7071 242.5264 123.1016)" fill="#231F20" font-family="Arial" font-size="14">12.6 - 15</text>
  <text transform="matrix(0.7071 -0.7071 0.7071 0.7071 280.9629 118.1016)" fill="#231F20" font-family="Arial" font-size="14">16 - 20</text>
  <text transform="matrix(0.7071 -0.7071 0.7071 0.7071 322.5527 113.793)" fill="#231F20" font-family="Arial" font-size="14">> 20</text>
</svg>
